<?xml version="1.0" standalone="no"?>
<!DOCTYPE svg PUBLIC "-//W3C//DTD SVG 20010904//EN"
 "http://www.w3.org/TR/2001/REC-SVG-20010904/DTD/svg10.dtd">
<svg version="1.0" xmlns="http://www.w3.org/2000/svg"
 width="1500.000000pt" height="500.000000pt" viewBox="0 0 1500.000000 500.000000"
 preserveAspectRatio="xMidYMid meet">
<metadata>
Created by potrace 1.16, written by Peter Selinger 2001-2019
</metadata>
<g transform="translate(0.000000,500.000000) scale(0.100000,-0.100000)"
fill="#000000" stroke="none">
<path d="M4808 4544 c-125 -30 -219 -98 -265 -192 l-28 -57 0 -530 0 -530 29
-58 c73 -144 214 -207 466 -207 142 0 234 17 309 55 154 78 207 200 199 465
l-3 105 -145 0 -145 0 -5 -146 c-5 -139 -6 -147 -32 -181 -39 -51 -89 -73
-173 -73 -87 0 -148 30 -182 90 -23 40 -23 42 -23 478 0 417 1 440 20 477 66
130 300 133 373 5 7 -11 14 -74 17 -140 l5 -120 145 0 145 0 3 80 c4 102 -12
224 -37 280 -43 97 -140 169 -273 200 -81 19 -321 19 -400 -1z m357 -29 c220
-47 315 -166 315 -396 l0 -99 -109 0 -108 0 -5 108 c-5 113 -16 148 -60 189
-40 37 -92 53 -175 53 -98 0 -144 -13 -188 -52 -64 -55 -66 -78 -63 -574 3
-423 4 -440 24 -479 11 -22 40 -53 62 -69 37 -26 52 -30 130 -34 101 -5 158 8
202 44 55 47 64 76 68 227 l4 137 109 0 109 0 0 -127 c0 -149 -15 -216 -66
-286 -43 -59 -107 -101 -199 -130 -101 -32 -309 -32 -411 0 -91 29 -160 76
-202 137 -62 93 -63 103 -60 622 l3 469 26 55 c37 78 81 125 152 160 117 57
296 76 442 45z"/>
<path d="M5931 4540 c-129 -35 -212 -98 -260 -200 l-26 -55 -3 -494 c-3 -474
-2 -497 17 -562 40 -129 160 -222 323 -249 107 -18 336 -8 418 19 130 41 222
132 252 246 10 38 13 167 13 525 0 425 -2 481 -18 532 -33 109 -118 188 -245
230 -99 32 -365 36 -471 8z m439 -39 c124 -39 207 -115 243 -225 15 -43 17
-108 17 -506 0 -501 -1 -513 -60 -602 -40 -60 -115 -110 -210 -140 -99 -30
-311 -33 -405 -4 -129 39 -205 99 -251 199 l-29 62 0 475 c0 546 -1 539 85
634 54 59 129 98 233 122 89 20 291 12 377 -15z"/>
<path d="M6013 4346 c-38 -18 -58 -36 -77 -68 l-26 -45 0 -469 c0 -467 0 -469
23 -509 16 -29 38 -48 77 -68 51 -26 62 -28 150 -25 108 4 157 22 196 73 41
54 45 116 42 568 -3 405 -4 424 -24 462 -11 22 -40 53 -63 70 -39 27 -50 30
-144 33 -91 3 -107 0 -154 -22z m259 -37 c30 -17 50 -38 66 -69 22 -44 22 -48
22 -475 0 -427 0 -431 -22 -475 -71 -141 -331 -125 -387 23 -18 46 -15 869 3
910 18 42 65 85 112 103 55 20 151 12 206 -17z"/>
<path d="M10533 4540 c-39 -10 -86 -26 -103 -35 -52 -27 -120 -95 -146 -146
-41 -81 -46 -155 -42 -641 3 -445 4 -454 26 -510 47 -117 147 -193 295 -225
92 -19 348 -13 420 11 121 39 189 96 236 196 24 52 26 66 29 233 l4 178 -144
-3 -143 -3 -5 -140 c-4 -117 -8 -146 -26 -175 -56 -97 -232 -118 -327 -39 -66
54 -68 78 -65 551 3 448 3 442 60 495 68 63 210 69 291 11 48 -34 61 -72 67
-198 l5 -115 140 0 140 0 0 150 c0 141 -2 153 -26 205 -14 31 -40 72 -57 91
-42 48 -136 97 -219 114 -101 22 -319 19 -410 -5z m369 -25 c144 -30 229 -88
280 -192 29 -60 32 -75 36 -184 l4 -119 -116 0 -116 0 0 105 c0 144 -28 199
-117 231 -57 20 -199 18 -248 -5 -50 -22 -91 -69 -105 -119 -14 -52 -13 -884
1 -937 14 -51 73 -110 124 -124 52 -14 173 -14 216 1 49 16 87 45 107 81 13
24 18 65 22 172 l5 140 114 3 113 3 -4 -148 c-3 -124 -7 -156 -25 -195 -46
-102 -117 -162 -236 -201 -94 -31 -314 -31 -413 0 -131 41 -218 121 -249 227
-13 46 -15 124 -13 532 l3 479 28 57 c66 134 214 205 432 207 50 0 120 -6 157
-14z"/>
<path d="M12751 4540 c-129 -34 -212 -98 -260 -199 l-26 -56 0 -520 c0 -512 0
-521 22 -567 51 -111 171 -194 315 -218 107 -18 336 -8 418 19 127 41 208 117
247 232 16 49 18 95 18 534 0 546 -1 552 -78 646 -86 106 -216 149 -441 148
-106 0 -159 -5 -215 -19z m372 -24 c148 -29 244 -95 296 -205 l26 -56 0 -485
c0 -555 2 -542 -87 -636 -90 -95 -235 -140 -423 -131 -173 9 -284 52 -363 143
-77 86 -77 88 -77 619 0 429 2 475 18 522 24 69 95 147 167 183 112 56 291 75
443 46z"/>
<path d="M12829 4343 c-39 -20 -60 -39 -76 -68 -23 -40 -23 -42 -23 -510 0
-468 0 -470 23 -510 34 -62 108 -95 212 -95 125 0 188 28 228 103 22 42 22 45
22 502 0 457 0 460 -22 502 -40 75 -103 103 -228 103 -69 0 -90 -4 -136 -27z
m262 -34 c28 -16 50 -39 66 -68 l23 -44 0 -431 c0 -428 0 -432 -22 -476 -34
-66 -91 -95 -188 -95 -96 0 -157 32 -189 98 -20 42 -21 57 -21 472 0 413 1
430 21 471 20 43 63 77 117 95 47 15 146 4 193 -22z"/>
<path d="M6815 4538 c-3 -7 -4 -359 -3 -783 l3 -770 137 -3 138 -3 2 528 3
527 231 -525 231 -524 154 0 154 0 0 780 0 780 -135 0 -135 0 -5 -458 -5 -458
-199 448 c-110 246 -204 454 -209 461 -7 9 -56 12 -184 12 -130 0 -175 -3
-178 -12z m565 -550 l235 -526 5 526 5 527 103 3 102 3 0 -756 0 -756 -120 3
-121 3 -262 594 -262 595 -5 -595 -5 -594 -102 -3 -103 -3 0 756 0 756 147 -3
148 -3 235 -527z"/>
<path d="M7954 4537 c-2 -7 -3 -56 -2 -108 l3 -94 193 -3 192 -2 0 -675 0
-675 150 0 150 0 0 675 0 675 193 2 192 3 0 105 0 105 -533 3 c-436 2 -533 0
-538 -11z m1036 -97 l0 -80 -190 0 -190 0 -2 -672 -3 -673 -115 0 -115 0 -3
673 -2 672 -190 0 -190 0 0 80 0 80 500 0 500 0 0 -80z"/>
<path d="M9345 4538 c-8 -22 -365 -1358 -386 -1444 -10 -45 -16 -89 -13 -98 5
-14 26 -16 140 -16 117 0 134 2 142 18 5 9 24 77 43 150 l34 132 232 0 231 0
11 -32 c5 -18 21 -78 36 -133 14 -55 28 -108 31 -118 5 -16 19 -17 152 -15
l147 3 3 27 c2 15 -87 365 -197 778 -111 413 -201 753 -201 755 0 3 -90 5
-200 5 -151 0 -202 -3 -205 -12z m374 -40 c15 -41 391 -1454 391 -1471 0 -15
-14 -17 -114 -17 l-113 0 -27 103 c-15 56 -34 126 -43 155 l-15 52 -261 -2
-262 -3 -40 -150 -40 -150 -108 -3 c-59 -1 -107 1 -107 6 0 8 385 1458 395
1490 3 9 46 12 170 12 162 0 166 0 174 -22z"/>
<path d="M9522 4275 c-69 -256 -212 -800 -212 -806 0 -5 101 -9 225 -9 190 0
225 2 225 14 0 13 -199 755 -219 816 -8 24 -9 23 -19 -15z m108 -457 l87 -318
-178 0 c-99 0 -179 3 -179 7 0 6 92 355 162 618 6 24 13 34 16 25 3 -8 44
-158 92 -332z"/>
<path d="M11314 4537 c-2 -7 -3 -56 -2 -108 l3 -94 193 -3 192 -2 0 -675 0
-675 150 0 150 0 0 675 0 675 193 2 192 3 0 105 0 105 -533 3 c-436 2 -533 0
-538 -11z m1036 -97 l0 -80 -190 0 -190 0 -2 -672 -3 -673 -115 0 -115 0 -3
673 -2 672 -190 0 -190 0 0 80 0 80 500 0 500 0 0 -80z"/>
<path d="M1333 4089 c-18 -5 -33 -14 -33 -19 0 -5 -10 -12 -22 -16 -42 -12
-148 -95 -189 -147 -22 -28 -52 -72 -65 -99 -52 -103 -52 -95 -59 -1238 -6
-991 -6 -1068 10 -1115 10 -27 18 -54 19 -60 4 -22 36 -71 60 -94 14 -14 26
-28 26 -32 0 -14 83 -87 137 -119 97 -59 105 -60 706 -60 l547 0 0 565 c0 447
-3 566 -12 564 -7 -1 -91 -1 -185 0 l-173 1 0 255 0 255 184 0 184 0 4 163 c4
142 8 171 31 235 69 195 213 351 382 414 55 20 82 22 310 26 227 3 252 5 270
22 20 19 20 18 17 -263 -2 -155 -5 -284 -8 -286 -2 -3 -10 1 -16 7 -9 9 -72
11 -227 10 l-216 -2 215 -6 215 -6 -203 -2 c-112 -1 -211 -6 -221 -12 -32 -17
-51 -83 -51 -181 0 -70 -3 -91 -15 -95 -47 -18 10 -24 235 -24 216 0 250 -2
250 -15 0 -24 15 -17 27 13 8 21 11 -24 12 -194 1 -122 -2 -249 -5 -283 l-7
-62 -253 1 c-143 1 -256 5 -259 10 -4 6 92 11 237 13 l243 2 -247 3 -248 2 0
-566 0 -565 333 3 334 3 74 38 c83 42 197 144 218 195 8 18 17 32 21 32 10 0
19 23 36 90 11 45 13 261 13 1145 0 1191 2 1162 -58 1248 -17 25 -31 49 -31
53 0 26 -196 174 -230 174 -9 0 -22 6 -28 13 -16 15 -2237 21 -2289 6z m2490
-168 c34 -36 71 -88 90 -128 l32 -68 2 -335 c1 -278 -1 -327 -11 -286 -11 47
-14 50 -59 65 -85 29 -230 171 -256 253 -7 21 -16 40 -19 42 -12 7 -15 313 -3
320 6 4 11 16 11 26 0 29 22 70 33 63 7 -4 8 1 3 12 -4 11 0 25 10 36 9 10 13
23 9 28 -5 10 7 15 28 12 14 -2 7 11 -15 29 l-23 19 24 -6 c18 -5 22 -3 17 6
-20 32 76 -34 127 -88z m-1388 -1721 c-4 -6 -67 -10 -156 -10 -93 0 -149 4
-149 10 0 6 59 10 156 10 101 0 153 -3 149 -10z"/>
<path d="M5986 2692 c-2 -4 -163 -392 -356 -861 -227 -552 -350 -862 -348
-879 l3 -27 233 0 234 0 131 308 c73 169 134 307 138 307 3 0 61 -129 128
-287 68 -159 129 -298 137 -311 l15 -22 807 2 807 3 0 235 0 235 -402 3 -403
2 0 265 0 265 403 2 402 3 0 230 0 230 -637 3 -638 2 -2 -555 -3 -556 -290
706 -290 705 -32 0 c-17 0 -34 -4 -37 -8z m682 -952 l2 630 605 0 605 0 0
-205 0 -205 -400 0 -400 0 0 -300 0 -300 400 0 400 0 0 -200 0 -200 -781 2
-782 3 -148 345 -148 345 -28 -64 c-15 -36 -82 -191 -148 -345 l-121 -281
-202 -3 c-111 -1 -202 0 -202 3 0 4 598 1462 685 1669 l17 39 321 -782 322
-782 3 631z"/>
<path d="M4132 1513 l3 -888 24 -3 c20 -3 61 33 233 205 l208 208 0 197 0 198
400 200 400 200 0 35 0 35 -400 0 c-349 0 -400 2 -400 15 0 13 51 15 400 15
l400 0 0 235 0 235 -635 0 -635 0 2 -887z m1238 652 l0 -205 -400 0 -400 0 0
-45 0 -45 403 -2 402 -3 -402 -203 -403 -202 0 -198 0 -197 -205 -205 -205
-205 0 858 0 857 605 0 605 0 0 -205z"/>
<path d="M7952 1663 l3 -738 630 0 630 0 0 235 0 235 -397 3 c-344 2 -398 4
-398 17 0 10 143 86 400 215 l400 200 0 35 0 35 -400 0 c-349 0 -400 2 -400
15 0 13 51 15 400 15 l400 0 0 235 0 235 -635 0 -635 0 2 -737z m1238 502 l0
-205 -400 0 -400 0 0 -45 0 -45 403 -2 402 -3 -402 -203 -403 -202 0 -50 0
-50 400 0 400 0 0 -200 0 -200 -605 0 -605 0 0 705 0 705 605 0 605 0 0 -205z"/>
<path d="M9262 1663 l3 -738 630 0 630 0 3 310 2 309 -60 61 -60 61 60 59 60
59 0 308 0 308 -635 0 -635 0 2 -737z m1238 429 l0 -278 -75 -74 -75 -75 75
-75 75 -75 0 -278 0 -277 -605 0 -605 0 0 705 0 705 605 0 605 0 0 -278z"/>
<path d="M9700 1660 l0 -300 190 0 c105 0 190 4 190 8 0 4 -19 27 -43 50 l-43
42 -102 0 -102 0 2 203 3 202 101 3 100 3 44 44 44 45 -192 0 -192 0 0 -300z
m280 255 c-10 -12 -36 -15 -116 -15 l-104 0 0 -235 0 -235 104 0 c80 0 106 -3
116 -15 11 -13 -3 -15 -119 -15 l-131 0 0 265 0 265 131 0 c116 0 130 -2 119
-15z"/>
<path d="M10565 2388 c-3 -7 -4 -339 -3 -738 l3 -725 635 0 635 0 3 738 2 737
-635 0 c-499 0 -637 -3 -640 -12z m1243 -725 l2 -703 -605 0 -605 0 0 705 0
705 603 -2 602 -3 3 -702z"/>
<path d="M11002 1663 l3 -298 198 -3 197 -2 0 300 0 300 -200 0 -200 0 2 -297z
m368 2 l0 -265 -165 0 -165 0 0 265 0 265 165 0 165 0 0 -265z"/>
<path d="M11872 1663 l3 -738 635 0 635 0 0 735 0 735 -638 3 -637 2 2 -737z
m1238 2 l0 -705 -605 0 -605 0 0 698 c0 384 3 702 7 705 3 4 276 7 605 7 l598
0 0 -705z"/>
<path d="M12310 1660 l0 -300 200 0 200 0 0 300 0 300 -200 0 -200 0 0 -300z
m370 5 l0 -265 -170 0 -170 0 0 265 0 265 170 0 170 0 0 -265z"/>
<path d="M13182 1463 l3 -938 29 -3 c25 -3 51 19 232 199 l204 203 2 345 3
345 215 -344 216 -345 257 -3 257 -2 0 37 c0 33 -27 77 -206 336 -114 164
-203 301 -199 305 3 4 64 36 133 72 l127 65 0 330 0 330 -235 0 -235 0 -3
-200 -2 -200 -165 -83 -165 -82 0 285 0 285 -235 0 -235 0 2 -937z m438 607
l0 -300 200 100 200 100 0 200 0 200 200 0 200 0 0 -305 0 -305 -145 -72 c-80
-40 -145 -77 -145 -81 0 -7 174 -262 422 -619 l19 -28 -228 0 -228 0 -245 392
-245 392 -3 -390 -2 -389 -205 -205 -205 -205 0 908 0 907 205 0 205 0 0 -300z"/>
<path d="M3453 2285 c0 -33 2 -45 4 -27 2 18 2 45 0 60 -2 15 -4 0 -4 -33z"/>
</g>
</svg>
