<?xml version="1.0" standalone="no"?>
<!DOCTYPE svg PUBLIC "-//W3C//DTD SVG 20010904//EN"
 "http://www.w3.org/TR/2001/REC-SVG-20010904/DTD/svg10.dtd">
<svg version="1.0" xmlns="http://www.w3.org/2000/svg"
 width="1500.000000pt" height="500.000000pt" viewBox="0 0 1500.000000 500.000000"
 preserveAspectRatio="xMidYMid meet">
<metadata>
Created by potrace 1.16, written by Peter Selinger 2001-2019
</metadata>
<g transform="translate(0.000000,500.000000) scale(0.100000,-0.100000)"
fill="#000000" stroke="none">
<path d="M4808 4544 c-125 -30 -219 -98 -265 -192 l-28 -57 0 -530 0 -530 29
-58 c73 -144 214 -207 466 -207 142 0 234 17 309 55 154 78 207 200 199 465
l-3 105 -145 0 -145 0 -5 -146 c-5 -139 -6 -147 -32 -181 -39 -51 -89 -73
-173 -73 -87 0 -148 30 -182 90 -23 40 -23 42 -23 478 0 417 1 440 20 477 66
130 300 133 373 5 7 -11 14 -74 17 -140 l5 -120 145 0 145 0 3 80 c4 102 -12
224 -37 280 -43 97 -140 169 -273 200 -81 19 -321 19 -400 -1z m357 -29 c220
-47 315 -166 315 -396 l0 -99 -109 0 -108 0 -5 108 c-5 113 -16 148 -60 189
-40 37 -92 53 -175 53 -98 0 -144 -13 -188 -52 -64 -55 -66 -78 -63 -574 3
-423 4 -440 24 -479 11 -22 40 -53 62 -69 37 -26 52 -30 130 -34 101 -5 158 8
202 44 55 47 64 76 68 227 l4 137 109 0 109 0 0 -127 c0 -149 -15 -216 -66
-286 -43 -59 -107 -101 -199 -130 -101 -32 -309 -32 -411 0 -91 29 -160 76
-202 137 -62 93 -63 103 -60 622 l3 469 26 55 c37 78 81 125 152 160 117 57
296 76 442 45z"/>
<path d="M5931 4540 c-129 -35 -212 -98 -260 -200 l-26 -55 -3 -494 c-3 -474
-2 -497 17 -562 40 -129 160 -222 323 -249 107 -18 336 -8 418 19 130 41 222
132 252 246 10 38 13 167 13 525 0 425 -2 481 -18 532 -33 109 -118 188 -245
230 -99 32 -365 36 -471 8z m439 -39 c124 -39 207 -115 243 -225 15 -43 17
-108 17 -506 0 -501 -1 -513 -60 -602 -40 -60 -115 -110 -210 -140 -99 -30
-311 -33 -405 -4 -129 39 -205 99 -251 199 l-29 62 0 475 c0 546 -1 539 85
634 54 59 129 98 233 122 89 20 291 12 377 -15z"/>
<path d="M6013 4346 c-38 -18 -58 -36 -77 -68 l-26 -45 0 -469 c0 -467 0 -469
23 -509 16 -29 38 -48 77 -68 51 -26 62 -28 150 -25 108 4 157 22 196 73 41
54 45 116 42 568 -3 405 -4 424 -24 462 -11 22 -40 53 -63 70 -39 27 -50 30
-144 33 -91 3 -107 0 -154 -22z m259 -37 c30 -17 50 -38 66 -69 22 -44 22 -48
22 -475 0 -427 0 -431 -22 -475 -71 -141 -331 -125 -387 23 -18 46 -15 869 3
910 18 42 65 85 112 103 55 20 151 12 206 -17z"/>
<path d="M10533 4540 c-39 -10 -86 -26 -103 -35 -52 -27 -120 -95 -146 -146
-41 -81 -46 -155 -42 -641 3 -445 4 -454 26 -510 47 -117 147 -193 295 -225
92 -19 348 -13 420 11 121 39 189 96 236 196 24 52 26 66 29 233 l4 178 -144
-3 -143 -3 -5 -140 c-4 -117 -8 -146 -26 -175 -56 -97 -232 -118 -327 -39 -66
54 -68 78 -65 551 3 448 3 442 60 495 68 63 210 69 291 11 48 -34 61 -72 67
-198 l5 -115 140 0 140 0 0 150 c0 141 -2 153 -26 205 -14 31 -40 72 -57 91
-42 48 -136 97 -219 114 -101 22 -319 19 -410 -5z m369 -25 c144 -30 229 -88
280 -192 29 -60 32 -75 36 -184 l4 -119 -116 0 -116 0 0 105 c0 144 -28 199
-117 231 -57 20 -199 18 -248 -5 -50 -22 -91 -69 -105 -119 -14 -52 -13 -884
1 -937 14 -51 73 -110 124 -124 52 -14 173 -14 216 1 49 16 87 45 107 81 13
24 18 65 22 172 l5 140 114 3 113 3 -4 -148 c-3 -124 -7 -156 -25 -195 -46
-102 -117 -162 -236 -201 -94 -31 -314 -31 -413 0 -131 41 -218 121 -249 227
-13 46 -15 124 -13 532 l3 479 28 57 c66 134 214 205 432 207 50 0 120 -6 157
-14z"/>
<path d="M12751 4540 c-129 -34 -212 -98 -260 -199 l-26 -56 0 -520 c0 -512 0
-521 22 -567 51 -111 171 -194 315 -218 107 -18 336 -8 418 19 127 41 208 117
247 232 16 49 18 95 18 534 0 546 -1 552 -78 646 -86 106 -216 149 -441 148
-106 0 -159 -5 -215 -19z m372 -24 c148 -29 244 -95 296 -205 l26 -56 0 -485
c0 -555 2 -542 -87 -636 -90 -95 -235 -140 -423 -131 -173 9 -284 52 -363 143
-77 86 -77 88 -77 619 0 429 2 475 18 522 24 69 95 147 167 183 112 56 291 75
443 46z"/>
<path d="M12829 4343 c-39 -20 -60 -39 -76 -68 -23 -40 -23 -42 -23 -510 0
-468 0 -470 23 -510 34 -62 108 -95 212 -95 125 0 188 28 228 103 22 42 22 45
22 502 0 457 0 460 -22 502 -40 75 -103 103 -228 103 -69 0 -90 -4 -136 -27z
m262 -34 c28 -16 50 -39 66 -68 l23 -44 0 -431 c0 -428 0 -432 -22 -476 -34
-66 -91 -95 -188 -95 -96 0 -157 32 -189 98 -20 42 -21 57 -21 472 0 413 1
430 21 471 20 43 63 77 117 95 47 15 146 4 193 -22z"/>
<path d="M6815 4538 c-3 -7 -4 -359 -3 -783 l3 -770 137 -3 138 -3 2 528 3
527 231 -525 231 -524 154 0 154 0 0 780 0 780 -135 0 -135 0 -5 -458 -5 -458
-199 448 c-110 246 -204 454 -209 461 -7 9 -56 12 -184 12 -130 0 -175 -3
-178 -12z m565 -550 l235 -526 5 526 5 527 103 3 102 3 0 -756 0 -756 -120 3
-121 3 -262 594 -262 595 -5 -595 -5 -594 -102 -3 -103 -3 0 756 0 756 147 -3
148 -3 235 -527z"/>
<path d="M7954 4537 c-2 -7 -3 -56 -2 -108 l3 -94 193 -3 192 -2 0 -675 0
-675 150 0 150 0 0 675 0 675 193 2 192 3 0 105 0 105 -533 3 c-436 2 -533 0
-538 -11z m1036 -97 l0 -80 -190 0 -190 0 -2 -672 -3 -673 -115 0 -115 0 -3
673 -2 672 -190 0 -190 0 0 80 0 80 500 0 500 0 0 -80z"/>
<path d="M9345 4538 c-8 -22 -365 -1358 -386 -1444 -10 -45 -16 -89 -13 -98 5
-14 26 -16 140 -16 117 0 134 2 142 18 5 9 24 77 43 150 l34 132 232 0 231 0
11 -32 c5 -18 21 -78 36 -133 14 -55 28 -108 31 -118 5 -16 19 -17 152 -15
l147 3 3 27 c2 15 -87 365 -197 778 -111 413 -201 753 -201 755 0 3 -90 5
-200 5 -151 0 -202 -3 -205 -12z m374 -40 c15 -41 391 -1454 391 -1471 0 -15
-14 -17 -114 -17 l-113 0 -27 103 c-15 56 -34 126 -43 155 l-15 52 -261 -2
-262 -3 -40 -150 -40 -150 -108 -3 c-59 -1 -107 1 -107 6 0 8 385 1458 395
1490 3 9 46 12 170 12 162 0 166 0 174 -22z"/>
<path d="M9522 4275 c-69 -256 -212 -800 -212 -806 0 -5 101 -9 225 -9 190 0
225 2 225 14 0 13 -199 755 -219 816 -8 24 -9 23 -19 -15z m108 -457 l87 -318
-178 0 c-99 0 -179 3 -179 7 0 6 92 355 162 618 6 24 13 34 16 25 3 -8 44
-158 92 -332z"/>
<path d="M11314 4537 c-2 -7 -3 -56 -2 -108 l3 -94 193 -3 192 -2 0 -675 0
-675 150 0 150 0 0 675 0 675 193 2 192 3 0 105 0 105 -533 3 c-436 2 -533 0
-538 -11z m1036 -97 l0 -80 -190 0 -190 0 -2 -672 -3 -673 -115 0 -115 0 -3
673 -2 672 -190 0 -190 0 0 80 0 80 500 0 500 0 0 -80z"/>
<path d="M2270 4024 c-334 -58 -579 -182 -805 -409 -205 -204 -335 -443 -396
-725 -19 -88 -23 -136 -23 -295 -1 -163 2 -205 22 -294 28 -126 72 -250 122
-351 20 -41 36 -79 34 -85 -1 -5 -44 -163 -94 -350 -50 -187 -93 -348 -96
-357 -9 -31 35 -22 391 73 187 49 349 88 360 85 11 -2 61 -22 111 -44 527
-234 1141 -120 1553 288 230 227 376 518 422 838 15 109 6 392 -16 492 -63
288 -202 536 -413 742 -197 191 -398 302 -672 370 -69 17 -121 22 -280 24
-107 1 -206 0 -220 -2z m356 -255 c667 -92 1119 -748 980 -1419 -76 -365 -306
-662 -640 -825 -159 -79 -274 -106 -461 -112 -169 -6 -276 8 -410 53 -82 27
-200 82 -246 115 -26 18 -28 18 -120 -7 -52 -14 -151 -40 -220 -59 l-127 -33
35 131 c19 73 45 170 59 217 l24 84 -24 36 c-108 163 -173 375 -183 595 -26
592 390 1115 972 1219 98 17 257 20 361 5z"/>
<path d="M1915 3295 c-51 -18 -116 -90 -158 -174 -59 -121 -48 -291 30 -446
77 -152 214 -338 343 -466 116 -115 228 -191 379 -258 253 -113 361 -124 509
-49 113 57 172 149 172 269 l0 48 -67 39 c-138 80 -266 142 -292 142 -20 0
-43 -20 -104 -90 -86 -100 -98 -105 -170 -69 -131 67 -258 170 -342 280 -57
73 -115 170 -115 191 0 9 27 50 60 89 67 80 79 109 61 153 -7 17 -34 91 -61
165 -27 73 -54 139 -60 146 -18 22 -76 45 -112 45 -18 -1 -51 -7 -73 -15z"/>
<path d="M3990 2480 l0 -160 50 0 c28 0 50 -3 51 -7 0 -5 46 -312 102 -683
l102 -675 162 -3 162 -2 9 32 c5 18 42 171 83 340 40 169 76 304 80 300 4 -4
39 -140 78 -302 40 -162 76 -312 82 -333 l10 -37 162 2 161 3 92 635 c51 349
96 654 99 677 6 42 6 42 53 45 l47 3 3 163 2 162 -265 0 -265 0 2 -162 3 -163
53 -3 c52 -3 53 -4 48 -30 -3 -15 -19 -151 -36 -302 -17 -151 -34 -288 -38
-304 -6 -24 -22 23 -88 255 l-81 284 -113 3 c-71 2 -117 -1 -124 -8 -6 -6 -43
-135 -82 -288 -82 -320 -71 -325 -109 58 -13 140 -27 272 -30 292 -5 36 -5 37
32 40 l38 3 3 163 2 162 -270 0 -270 0 0 -160z m1317 -1242 c-3 -8 -6 -5 -6 6
-1 11 2 17 5 13 3 -3 4 -12 1 -19z m-1002 -110 c15 -62 32 -119 37 -125 7 -9
44 -13 118 -13 118 0 132 6 144 65 4 17 20 66 37 110 32 87 32 83 -7 -82 l-27
-113 -148 0 c-82 0 -149 2 -149 5 0 5 -26 177 -35 233 -12 71 5 26 30 -80z
m694 -125 c17 -18 224 -18 239 0 6 7 18 46 27 87 8 41 19 89 24 105 9 29 9 29
10 4 1 -14 -3 -50 -8 -80 -5 -30 -12 -75 -16 -101 l-6 -48 -149 0 -148 0 -31
130 c-17 71 -31 133 -30 137 0 4 18 -44 39 -107 21 -63 43 -121 49 -127z"/>
<path d="M5680 2480 l0 -160 60 0 60 0 0 -525 0 -525 -59 0 -60 0 -3 -153 c-2
-83 0 -155 3 -160 3 -4 138 -6 300 -5 l294 3 0 155 0 155 -57 3 -58 3 0 184 0
185 135 0 135 0 0 -185 0 -184 -62 -3 -63 -3 0 -155 0 -155 298 -3 297 -2 0
160 0 160 -55 0 -55 0 0 519 0 520 53 3 52 3 3 163 2 162 -297 -2 -298 -3 0
-160 0 -160 63 -3 62 -3 0 -169 0 -170 -135 0 -135 0 0 170 0 169 58 3 57 3 0
160 0 160 -297 3 -298 2 0 -160z m40 -1245 c-16 -19 -4 -226 13 -237 16 -11
469 -10 485 1 19 12 38 217 21 237 -9 11 -8 14 5 14 14 0 16 -18 16 -140 l0
-140 -285 0 -285 0 0 63 c0 125 12 217 28 217 12 0 12 -3 2 -15z m621 1 c-14
-16 -4 -214 12 -233 7 -10 68 -13 246 -13 130 0 241 4 247 8 6 4 14 43 18 86
4 43 10 91 12 106 4 17 0 33 -11 43 -15 16 -15 17 4 17 20 0 21 -5 21 -140 l0
-140 -285 0 -285 0 0 140 c0 122 2 140 16 140 13 0 14 -3 5 -14z"/>
<path d="M7204 2627 c-2 -7 -3 -80 -2 -162 l3 -150 33 -3 c17 -2 32 -5 32 -8
0 -2 -54 -233 -120 -514 -66 -281 -120 -512 -120 -514 0 -3 -15 -6 -32 -8
l-33 -3 0 -155 0 -155 235 0 235 0 0 155 0 155 -32 3 c-23 2 -33 8 -33 20 1
39 13 43 120 40 103 -3 104 -3 111 -30 6 -25 4 -27 -25 -30 l-31 -3 0 -155 0
-155 235 0 235 0 0 155 0 155 -31 3 -31 3 -53 202 c-230 887 -218 836 -196
839 20 3 21 10 24 166 l2 162 -260 0 c-204 0 -262 -3 -266 -13z m321 -1024 c5
-21 2 -23 -40 -23 -25 0 -45 2 -45 5 0 3 10 45 22 93 l22 87 17 -70 c10 -38
21 -80 24 -92z m-519 -372 c-15 -16 -16 -30 -7 -121 6 -65 15 -106 23 -111 17
-11 339 -11 356 0 19 12 38 217 21 237 -9 11 -8 14 5 14 14 0 16 -18 16 -140
l0 -140 -220 0 -220 0 0 140 c0 137 1 140 22 140 20 0 20 -1 4 -19z m575 5
c-14 -16 -4 -214 12 -233 11 -15 343 -18 365 -4 19 12 38 217 21 237 -9 11 -8
14 5 14 14 0 16 -18 16 -140 l0 -140 -220 0 -220 0 0 140 c0 122 2 140 16 140
13 0 14 -3 5 -14z"/>
<path d="M8065 2627 c-3 -7 -4 -123 -3 -257 l3 -245 148 -3 147 -3 0 101 0
100 40 0 40 0 0 -524 0 -525 -52 -3 -53 -3 0 -155 0 -155 290 0 290 0 3 157 3
158 -56 0 -55 0 0 525 0 525 35 0 35 0 0 -100 0 -100 150 0 150 0 -2 258 -3
257 -553 3 c-441 2 -554 0 -557 -11z m306 -1391 c-14 -16 -4 -214 12 -233 7
-10 68 -13 242 -13 174 0 235 3 243 13 16 20 26 215 12 232 -10 12 -9 15 4 15
14 0 16 -18 16 -140 l0 -140 -275 0 -275 0 0 140 c0 122 2 140 16 140 13 0 14
-3 5 -14z"/>
<path d="M9328 2564 l-78 -76 0 -348 0 -348 81 -76 81 -76 274 0 274 0 0 -185
0 -185 -180 0 -180 0 0 100 0 100 -175 0 -175 0 0 -168 0 -167 93 -93 92 -92
355 0 355 1 88 83 87 83 0 344 0 344 -83 83 -82 82 -273 0 -272 0 0 170 0 170
170 0 169 0 3 -92 3 -93 180 0 180 0 3 170 3 169 -88 88 -88 88 -370 0 -370 0
-77 -76z m28 -1482 c44 -41 89 -78 102 -83 32 -12 634 -12 667 1 29 11 131
104 147 135 6 11 14 44 18 75 l7 55 2 -70 1 -70 -77 -77 -78 -78 -355 0 -355
0 -87 87 -88 88 1 65 2 65 7 -60 c8 -59 9 -61 86 -133z"/>
<path d="M10610 2475 l0 -165 30 0 c18 0 30 -5 30 -13 0 -12 -224 -972 -236
-1009 -3 -9 -17 -18 -32 -20 l-27 -3 -3 -158 -3 -157 233 2 233 3 3 158 3 157
-37 0 c-29 0 -35 3 -30 16 3 9 6 22 6 30 0 11 22 14 109 14 104 0 109 -1 115
-22 9 -35 8 -37 -26 -40 l-33 -3 0 -155 0 -155 235 0 235 0 0 155 0 155 -30 3
-30 3 -129 502 c-72 276 -132 510 -134 519 -3 11 3 17 20 20 l23 3 0 160 0
160 -262 3 -263 2 0 -165z m301 -807 c10 -40 19 -76 19 -80 0 -5 -21 -8 -46
-8 -33 0 -45 4 -42 13 3 6 13 45 23 84 10 40 20 71 23 69 2 -2 12 -37 23 -78z
m-505 -440 c-12 -19 -12 -40 -3 -123 6 -55 16 -103 21 -107 20 -14 352 -9 364
5 16 20 26 215 12 232 -10 12 -9 15 4 15 14 0 16 -18 16 -140 l0 -140 -220 0
-220 0 0 140 c0 134 1 140 20 140 19 0 19 -2 6 -22z m575 8 c-17 -20 2 -225
21 -237 22 -14 354 -11 365 4 16 19 26 217 12 233 -9 11 -8 14 5 14 14 0 16
-18 16 -140 l0 -140 -220 0 -220 0 0 140 c0 122 2 140 16 140 13 0 14 -3 5
-14z"/>
<path d="M11514 2627 c-2 -7 -3 -80 -2 -162 l3 -150 63 -3 62 -3 0 -519 0
-520 -60 0 -60 0 0 -160 0 -160 303 2 302 3 3 158 3 157 -61 0 -60 0 0 190 0
190 193 0 192 0 93 93 92 92 0 315 0 315 -87 87 -88 88 -443 0 c-353 0 -444
-3 -448 -13z m686 -482 l0 -165 -100 0 -100 0 0 165 0 165 100 0 100 0 0 -165z
m-640 -910 c-14 -17 -4 -212 12 -232 8 -10 71 -13 253 -13 182 0 245 3 253 13
16 20 26 215 12 232 -10 12 -9 15 4 15 14 0 16 -18 16 -140 l0 -140 -285 0
-285 0 0 140 c0 122 2 140 16 140 13 0 14 -3 4 -15z"/>
<path d="M12674 2627 c-2 -7 -3 -80 -2 -162 l3 -150 58 -3 57 -3 0 -519 0
-520 -55 0 -55 0 0 -160 0 -160 303 2 302 3 0 155 0 155 -57 3 -58 3 0 189 0
190 193 0 192 0 93 93 92 92 0 315 0 315 -87 87 -88 88 -443 0 c-353 0 -444
-3 -448 -13z m676 -482 l0 -165 -95 0 -95 0 0 165 0 165 95 0 95 0 0 -165z
m-634 -911 c-9 -8 -16 -18 -15 -22 0 -4 6 -54 12 -112 l12 -105 250 -3 c137
-1 253 2 257 6 5 5 14 57 20 116 8 82 7 110 -2 121 -10 12 -9 15 4 15 14 0 16
-18 16 -140 l0 -140 -290 0 -290 0 0 140 c0 135 1 140 21 140 19 0 19 -1 5
-16z"/>
</g>
</svg>
