<?xml version="1.0" standalone="no"?>
<!DOCTYPE svg PUBLIC "-//W3C//DTD SVG 20010904//EN"
 "http://www.w3.org/TR/2001/REC-SVG-20010904/DTD/svg10.dtd">
<svg version="1.0" xmlns="http://www.w3.org/2000/svg"
 width="3000.000000pt" height="3000.000000pt" viewBox="0 0 3000.000000 3000.000000"
 preserveAspectRatio="xMidYMid meet">
<metadata>
Created by potrace 1.16, written by Peter Selinger 2001-2019
</metadata>
<g transform="translate(0.000000,3000.000000) scale(0.100000,-0.100000)"
fill="#000000" stroke="none">
<path d="M5445 21770 c-3 -5 -24 -10 -45 -10 -160 0 -912 -130 -1015 -175 -16
-8 -86 -30 -155 -50 -188 -55 -372 -115 -395 -130 -11 -7 -86 -38 -165 -70
-126 -50 -596 -277 -610 -294 -3 -4 -68 -42 -145 -85 -77 -44 -144 -84 -150
-91 -5 -6 -68 -49 -140 -94 -71 -46 -134 -89 -140 -96 -5 -7 -53 -43 -105 -80
-52 -38 -111 -83 -130 -100 -19 -18 -62 -54 -95 -80 -163 -128 -565 -525 -691
-682 -41 -50 -78 -93 -82 -95 -10 -4 -135 -168 -234 -306 -150 -209 -173 -243
-200 -292 -15 -28 -47 -81 -71 -118 -77 -117 -276 -495 -312 -592 -7 -19 -33
-78 -57 -130 -50 -105 -76 -174 -139 -360 -23 -69 -45 -129 -49 -135 -19 -23
-121 -422 -156 -610 -10 -49 -21 -92 -25 -95 -8 -6 -52 -306 -76 -525 -25
-230 -25 -950 0 -1180 25 -226 68 -519 77 -525 4 -3 11 -25 15 -50 22 -139
146 -631 165 -655 4 -5 19 -44 33 -85 65 -197 113 -324 158 -418 27 -56 49
-106 49 -110 0 -3 25 -58 55 -122 49 -104 109 -253 122 -305 3 -11 11 -34 19
-52 8 -17 14 -36 14 -42 0 -6 9 -28 20 -48 11 -21 20 -43 20 -50 0 -8 4 -21 9
-31 6 -9 22 -46 36 -82 15 -36 33 -77 40 -91 8 -14 24 -56 36 -95 11 -38 29
-89 39 -114 10 -25 21 -87 24 -140 23 -336 28 -388 51 -461 21 -66 82 -205
118 -264 34 -58 73 -122 84 -140 7 -11 16 -28 19 -37 3 -10 9 -18 13 -18 4 0
15 -15 26 -32 10 -18 24 -37 32 -41 7 -4 13 -14 13 -22 0 -7 4 -15 8 -17 4 -2
23 -24 42 -50 18 -27 37 -48 42 -48 4 0 8 -5 8 -11 0 -7 10 -22 22 -34 13 -12
52 -55 88 -95 36 -41 75 -85 87 -98 13 -12 23 -25 23 -27 0 -8 98 -113 195
-210 111 -110 317 -305 322 -305 2 0 21 -17 42 -37 68 -67 105 -99 146 -129
22 -16 42 -32 43 -36 2 -5 10 -8 17 -8 7 0 15 -7 19 -15 3 -8 12 -15 20 -15 8
0 16 -3 18 -7 4 -10 75 -63 83 -63 8 0 89 -63 93 -72 2 -5 10 -8 17 -8 7 0 15
-3 17 -7 4 -11 128 -93 139 -93 5 0 9 -4 9 -8 0 -5 16 -17 35 -28 19 -10 35
-21 35 -25 0 -4 8 -9 18 -12 9 -4 35 -17 57 -31 22 -14 78 -47 125 -73 47 -26
91 -53 98 -60 7 -7 20 -13 27 -13 7 0 20 -6 27 -13 7 -6 49 -29 93 -50 44 -22
89 -44 100 -50 49 -26 184 -89 260 -122 73 -31 100 -42 135 -59 19 -9 49 -20
65 -25 17 -5 62 -22 100 -36 39 -15 86 -30 105 -35 19 -4 78 -21 130 -38 52
-16 127 -37 165 -46 39 -10 102 -26 140 -36 39 -10 104 -26 145 -34 41 -9 116
-24 165 -35 215 -46 466 -79 740 -97 285 -19 716 -5 950 31 55 9 145 23 200
31 199 31 429 78 510 104 33 11 68 20 79 20 10 0 39 6 65 14 25 8 80 24 121
36 41 11 96 28 121 35 26 8 53 15 60 15 15 0 109 34 152 56 16 8 33 14 39 14
6 0 32 9 57 21 84 38 125 56 261 114 121 52 217 96 275 128 11 6 45 23 75 39
30 15 73 39 95 52 22 14 52 32 68 40 15 9 39 23 55 32 15 8 39 23 53 32 15 9
53 32 85 51 33 19 61 37 64 41 3 3 23 17 45 30 22 13 56 36 75 50 19 15 80 60
135 100 55 41 102 78 103 82 2 4 10 8 17 8 7 0 15 7 19 15 3 8 12 15 21 15 8
0 15 4 15 9 0 5 26 28 57 52 32 24 75 60 96 81 21 21 40 38 42 38 11 0 499
479 545 535 14 17 43 53 65 80 22 28 42 52 45 55 15 14 192 243 215 279 15 23
32 41 36 41 5 0 9 5 9 10 0 6 4 16 10 23 43 53 60 76 60 81 0 3 16 28 35 55
19 26 35 51 35 55 0 3 15 28 33 54 35 52 44 68 91 152 16 30 40 73 53 95 42
75 110 220 125 270 9 28 26 111 38 185 21 127 40 190 65 216 6 6 35 41 65 78
29 36 57 66 62 66 4 0 8 6 8 14 0 8 7 16 15 20 8 3 15 10 15 15 0 6 10 21 23
35 12 13 29 37 37 53 8 15 17 30 20 33 11 11 67 108 83 145 10 22 27 57 38 78
10 22 19 43 19 49 0 5 6 24 14 41 55 125 108 356 143 622 26 198 26 735 0 910
-9 66 -19 136 -22 155 l-4 35 102 1 c124 2 192 20 272 72 89 58 144 110 677
633 l486 479 142 0 142 0 62 49 c72 58 171 159 179 183 3 9 -2 26 -11 37 -16
18 -36 19 -346 25 -393 8 -373 13 -494 -122 -146 -164 -347 -364 -482 -480
-74 -64 -207 -186 -295 -272 -249 -241 -414 -366 -512 -388 -36 -8 -46 -6 -72
12 -67 47 -111 179 -116 355 l-3 104 -79 111 c-81 116 -253 296 -326 343 -69
45 -101 63 -119 69 -10 4 -18 10 -18 14 0 13 53 90 62 90 4 0 8 4 8 10 0 11
90 133 103 138 4 2 7 10 7 17 0 7 7 15 15 19 8 3 15 10 15 16 0 5 6 18 14 27
47 58 205 264 225 293 13 19 29 40 35 45 16 15 69 112 101 188 31 71 38 153
44 472 l6 320 59 -175 c32 -96 65 -190 73 -209 24 -53 107 -400 138 -572 15
-84 30 -161 33 -169 3 -8 4 -21 3 -27 -1 -7 2 -21 8 -31 5 -9 19 -107 30 -217
38 -359 53 -465 64 -458 14 8 2 419 -18 608 -21 201 -65 509 -74 515 -4 3 -15
46 -25 95 -35 188 -137 587 -156 610 -4 6 -26 66 -49 135 -63 186 -89 255
-139 360 -24 52 -50 111 -57 130 -36 97 -235 475 -312 592 -24 37 -56 90 -71
118 -27 49 -50 83 -200 292 -99 138 -224 302 -234 306 -4 2 -41 45 -82 95
-126 157 -528 554 -691 682 -33 26 -76 62 -95 80 -19 17 -78 62 -130 100 -52
37 -100 73 -105 80 -6 7 -69 50 -140 96 -72 45 -134 88 -140 94 -5 7 -73 48
-150 91 -77 43 -142 81 -145 85 -14 18 -484 245 -610 294 -79 32 -154 63 -165
70 -23 15 -207 75 -395 130 -69 20 -138 42 -155 50 -103 45 -855 175 -1015
175 -21 0 -42 5 -45 10 -4 6 -180 10 -495 10 -315 0 -491 -4 -495 -10z m-49
-533 c4 -4 28 -6 53 -5 l46 1 -50 7 c-27 4 274 7 670 7 396 0 700 -3 675 -6
-37 -6 -40 -8 -20 -13 20 -4 17 -6 -15 -7 -32 -2 -36 -4 -20 -11 28 -12 95
-12 95 0 0 6 -6 10 -12 10 -7 1 1 6 17 13 29 12 171 14 183 3 3 -3 14 -6 25
-6 16 0 17 -3 7 -15 -10 -12 -10 -15 1 -15 8 0 34 -14 58 -30 42 -29 49 -30
150 -30 100 0 106 -1 126 -25 18 -22 30 -25 119 -31 64 -5 102 -12 110 -21 34
-41 38 -43 106 -43 67 0 92 -10 102 -41 2 -6 35 -13 73 -15 88 -6 93 -8 104
-38 9 -21 17 -24 73 -28 50 -3 71 -10 99 -31 20 -15 49 -27 65 -27 36 0 52
-10 68 -41 9 -20 21 -25 64 -29 44 -4 55 -9 65 -30 11 -21 20 -25 65 -28 45
-3 54 -7 62 -27 7 -18 19 -25 56 -31 40 -6 48 -11 60 -41 13 -30 19 -34 47
-33 57 3 65 0 76 -30 9 -28 14 -30 58 -30 40 -1 53 -6 77 -30 16 -17 35 -30
42 -30 7 0 14 -12 16 -27 3 -25 8 -29 52 -34 33 -3 53 -12 65 -27 9 -12 30
-26 48 -33 20 -7 33 -18 35 -32 2 -15 13 -23 38 -28 37 -8 120 -78 120 -102 0
-17 20 -37 38 -37 8 0 27 -11 44 -25 16 -14 40 -25 53 -25 24 0 53 -24 142
-114 12 -12 25 -34 28 -49 4 -15 11 -27 17 -27 21 0 354 -329 483 -477 73 -85
104 -111 153 -133 13 -5 30 -26 38 -45 8 -19 18 -35 23 -35 5 0 12 -15 15 -34
4 -19 21 -53 39 -76 42 -55 119 -130 133 -130 6 0 14 -22 18 -50 4 -27 11 -52
16 -55 6 -4 20 -25 31 -48 12 -23 29 -51 39 -62 9 -11 20 -30 23 -43 5 -19 2
-23 -16 -20 -12 2 -27 15 -34 29 -7 14 -29 43 -48 63 -20 21 -53 64 -75 95
-21 31 -60 79 -87 107 -26 28 -61 68 -78 88 -59 74 -108 126 -126 131 -10 3
-35 29 -55 58 -66 92 -328 333 -401 368 -24 11 -60 42 -80 68 -23 29 -64 62
-106 86 -38 22 -77 49 -86 61 -9 11 -28 27 -41 34 -14 7 -35 22 -48 33 -25 23
-97 67 -152 93 -19 9 -42 22 -51 30 -24 22 -126 82 -152 90 -12 4 -34 17 -49
30 -15 12 -42 26 -60 29 -18 4 -49 21 -68 36 -19 16 -44 29 -56 29 -11 0 -41
13 -65 30 -24 16 -53 30 -64 30 -12 0 -52 16 -89 35 -38 19 -76 35 -84 35 -9
0 -33 12 -53 26 -22 15 -59 28 -91 33 -32 4 -69 18 -93 34 -22 15 -53 27 -70
27 -16 1 -48 8 -70 16 -57 23 -133 45 -185 54 -25 5 -68 18 -96 29 -28 11 -79
23 -115 26 -35 4 -95 17 -134 30 -51 17 -111 26 -225 34 -85 6 -180 18 -210
26 -151 44 -810 41 -1030 -5 -52 -11 -121 -20 -153 -20 -77 0 -243 -28 -279
-46 -16 -8 -59 -17 -96 -20 -37 -3 -106 -19 -154 -35 -47 -16 -99 -29 -115
-29 -16 0 -51 -11 -77 -24 -27 -14 -70 -27 -98 -31 -27 -4 -70 -18 -96 -33
-26 -14 -69 -29 -97 -33 -27 -5 -62 -18 -77 -29 -15 -11 -49 -25 -75 -32 -26
-7 -60 -20 -75 -30 -15 -11 -49 -25 -76 -33 -27 -8 -55 -22 -62 -30 -7 -8 -28
-17 -47 -21 -19 -4 -46 -16 -61 -28 -15 -12 -48 -30 -73 -39 -26 -10 -54 -26
-64 -37 -9 -10 -31 -22 -49 -25 -17 -4 -42 -17 -56 -30 -14 -13 -41 -30 -60
-39 -48 -23 -121 -67 -155 -93 -15 -13 -34 -23 -41 -23 -7 0 -28 -13 -46 -29
-18 -15 -44 -34 -58 -41 -27 -14 -60 -38 -118 -85 -20 -17 -59 -46 -87 -65
-64 -43 -131 -99 -214 -175 -36 -34 -88 -79 -116 -100 -74 -59 -305 -294 -407
-415 -49 -58 -110 -130 -137 -160 -26 -30 -58 -71 -71 -90 -13 -19 -27 -37
-30 -40 -3 -3 -18 -23 -33 -45 -15 -22 -43 -60 -62 -85 -19 -25 -44 -63 -54
-86 -11 -24 -29 -45 -43 -49 -12 -5 -255 -12 -538 -16 -283 -4 -534 -10 -558
-14 l-42 -7 0 36 c0 29 5 38 29 50 17 9 36 33 50 63 28 62 39 80 78 126 18 20
33 43 33 51 0 16 67 118 85 128 6 4 33 44 60 90 27 46 69 103 94 129 56 55
100 111 126 160 19 36 91 122 162 195 18 18 33 38 33 43 0 5 9 13 20 16 11 4
27 20 35 36 9 16 22 29 30 29 8 0 21 14 30 30 9 17 22 30 30 30 8 0 21 14 30
30 9 17 22 30 30 30 7 0 22 14 32 30 9 17 23 30 31 30 7 0 21 13 30 30 9 16
22 30 28 30 6 0 25 15 42 33 17 17 46 44 64 59 18 15 49 41 69 57 20 17 41 31
46 31 5 0 20 12 34 26 13 14 38 32 55 40 17 8 37 26 44 39 7 14 17 25 21 25 5
0 23 13 41 28 18 16 46 32 61 36 16 4 33 17 39 32 6 13 22 27 35 30 13 4 32
19 44 35 11 16 29 29 39 29 11 0 35 14 53 30 19 17 41 30 49 30 8 0 25 12 39
26 13 14 39 32 57 40 19 7 47 25 64 39 16 14 34 25 40 25 5 0 23 11 39 25 16
13 45 29 64 34 20 5 49 21 66 35 17 14 41 26 55 26 13 0 38 13 56 30 19 18 42
30 58 30 15 0 44 13 65 30 22 17 50 30 66 30 17 0 42 12 61 29 23 20 52 33 92
40 35 6 69 20 88 36 18 15 42 25 61 25 19 0 50 13 76 30 34 24 55 30 94 30 41
0 56 5 78 26 22 21 42 28 97 34 49 5 81 15 104 31 25 18 52 25 115 30 69 6 87
11 113 33 29 24 39 26 121 26 67 0 102 5 141 21 29 12 68 27 87 34 31 11 32
13 15 23 -17 10 -17 11 8 12 15 0 29 3 31 8 6 9 134 9 143 -1z m1661 7 c-3 -3
-12 -4 -19 -1 -8 3 -5 6 6 6 11 1 17 -2 13 -5z m156 -21 c-7 -2 -19 -2 -25 0
-7 3 -2 5 12 5 14 0 19 -2 13 -5z m579 -138 c67 -20 127 -40 132 -45 16 -16
-23 -12 -52 5 -15 8 -67 26 -116 40 -79 22 -113 35 -93 35 3 0 61 -16 129 -35z
m331 -115 c139 -48 270 -99 277 -109 3 -4 37 -20 75 -36 103 -42 298 -134 305
-144 3 -4 68 -40 144 -80 77 -39 158 -85 180 -102 23 -16 93 -61 156 -100 63
-39 120 -76 125 -83 6 -7 52 -41 104 -76 52 -35 113 -80 135 -100 23 -20 67
-55 98 -78 32 -23 77 -60 100 -83 24 -22 72 -65 108 -95 134 -110 568 -567
620 -651 9 -15 37 -50 62 -78 25 -27 67 -81 93 -120 27 -38 66 -95 87 -125 36
-51 85 -124 202 -305 25 -38 75 -127 111 -197 l66 -128 -76 0 c-86 0 -86 0
-99 95 -9 59 -25 114 -42 135 -6 8 -26 45 -45 83 -18 37 -36 67 -41 67 -4 0
-8 4 -8 9 0 11 -97 157 -122 185 -10 11 -20 27 -23 37 -3 9 -12 20 -20 23 -8
3 -15 12 -15 20 0 8 -3 16 -7 18 -12 5 -94 106 -152 188 -53 73 -122 156 -195
233 -20 21 -36 42 -36 47 0 5 -9 14 -20 20 -11 6 -20 15 -20 20 0 13 -349 363
-459 461 -46 41 -102 91 -125 113 -44 41 -168 141 -206 166 -30 19 -160 120
-183 141 -10 9 -34 25 -55 35 -20 11 -44 26 -54 34 -9 8 -34 24 -55 35 -21 11
-47 28 -57 37 -11 10 -28 20 -38 24 -10 3 -18 10 -18 15 0 5 -5 9 -12 9 -6 0
-19 7 -28 15 -16 14 -44 30 -190 107 -41 21 -79 43 -84 49 -6 5 -17 9 -26 9
-9 0 -25 9 -35 20 -10 11 -24 20 -31 20 -7 0 -27 8 -46 17 -18 9 -41 20 -50
25 -10 4 -26 12 -35 18 -29 16 -185 86 -223 99 -19 8 -53 22 -75 32 -22 10
-68 28 -102 40 -35 12 -63 23 -63 25 0 6 4 5 123 -36z m-1081 -520 c193 -13
319 -28 383 -45 28 -8 97 -19 155 -25 58 -6 109 -15 115 -19 5 -4 48 -18 95
-30 47 -12 105 -29 130 -37 25 -9 59 -18 75 -21 17 -3 69 -20 117 -39 49 -19
106 -34 128 -34 26 0 47 -7 59 -19 28 -28 56 -41 86 -41 14 0 37 -11 50 -25
14 -13 42 -27 63 -31 20 -3 57 -19 81 -35 27 -18 58 -29 78 -29 25 0 42 -8 61
-29 19 -20 41 -31 73 -35 30 -4 53 -15 66 -30 11 -13 37 -26 56 -30 24 -4 43
-17 57 -36 12 -17 28 -30 35 -30 8 0 29 -13 47 -28 18 -15 46 -34 63 -41 16
-7 35 -21 42 -31 7 -10 26 -21 42 -25 16 -3 37 -15 47 -27 11 -11 35 -29 54
-39 19 -11 55 -35 80 -54 25 -19 56 -43 70 -52 32 -22 130 -104 233 -196 33
-29 66 -56 74 -60 39 -23 409 -413 432 -456 8 -13 28 -39 47 -57 51 -52 132
-151 138 -171 3 -10 19 -27 36 -38 33 -22 45 -44 32 -57 -5 -5 -242 -9 -541
-9 l-532 1 -72 76 c-164 172 -425 432 -462 460 -21 16 -60 48 -85 72 -25 24
-58 50 -75 59 -16 9 -40 25 -52 37 -11 12 -40 35 -63 51 -22 17 -55 41 -73 55
-18 15 -66 46 -107 70 -41 24 -90 57 -108 72 -18 15 -41 28 -52 28 -10 0 -31
11 -47 24 -15 13 -46 31 -68 40 -22 9 -49 25 -60 35 -11 11 -34 22 -52 26 -18
3 -49 20 -69 36 -20 16 -47 29 -60 29 -14 0 -43 14 -66 30 -23 17 -54 30 -70
30 -16 0 -45 11 -66 24 -20 14 -50 28 -67 32 -16 4 -55 19 -85 34 -30 15 -76
30 -103 33 -26 4 -60 16 -75 27 -30 22 -112 41 -143 33 -11 -3 -37 6 -61 22
-29 19 -62 30 -112 36 -95 12 -160 25 -226 44 -30 8 -152 22 -270 31 -118 8
-240 19 -270 24 -90 14 -346 11 -445 -5 -49 -8 -165 -20 -256 -25 -123 -8
-182 -16 -225 -31 -32 -11 -109 -27 -170 -34 -68 -8 -127 -21 -151 -33 -21
-11 -64 -25 -95 -31 -31 -5 -83 -21 -117 -35 -33 -15 -71 -26 -83 -26 -13 0
-50 -14 -83 -30 -33 -16 -71 -30 -85 -30 -14 0 -47 -14 -75 -30 -27 -16 -58
-30 -67 -30 -10 0 -32 -13 -50 -28 -18 -16 -50 -32 -72 -35 -21 -3 -48 -15
-60 -26 -12 -11 -42 -29 -67 -39 -26 -11 -50 -25 -54 -32 -4 -6 -30 -22 -58
-35 -29 -13 -74 -39 -102 -59 -27 -20 -68 -45 -91 -56 -42 -20 -104 -65 -139
-100 -12 -11 -25 -20 -31 -20 -5 0 -25 -13 -44 -28 -34 -28 -73 -52 -84 -52
-18 0 0 35 38 73 60 61 181 163 208 178 13 7 55 36 93 64 87 66 302 212 360
245 23 14 65 38 91 53 27 16 73 42 103 58 29 16 64 38 78 49 14 11 33 20 42
20 9 0 33 11 53 25 20 14 41 25 45 25 4 0 40 15 78 34 88 43 202 92 235 101
14 4 39 15 56 25 17 10 47 21 65 25 19 4 62 20 95 36 34 16 82 32 105 35 24 4
71 17 105 30 33 12 89 28 125 34 35 6 94 20 131 31 38 11 126 28 197 38 71 11
139 25 152 32 54 29 748 48 1041 29z m-5032 -994 c0 -2 -8 -10 -17 -17 -16
-13 -17 -12 -4 4 13 16 21 21 21 13z m-97 -111 c-3 -9 -8 -14 -10 -11 -3 3 -2
9 2 15 9 16 15 13 8 -4z m-59 -75 c-15 -22 -31 -40 -36 -40 -5 0 5 18 22 40
17 22 34 40 36 40 2 0 -8 -18 -22 -40z m-56 -74 c-19 -14 -105 -122 -111 -140
-2 -6 -7 -8 -10 -5 -4 3 23 42 59 88 36 46 69 80 72 76 4 -4 -1 -12 -10 -19z
m-168 -220 c0 -3 -6 -11 -12 -18 -7 -8 -17 -21 -23 -30 -43 -69 -127 -188
-136 -194 -14 -8 -11 -3 48 86 77 118 108 160 116 160 4 0 7 -2 7 -4z m-180
-266 c0 -5 -5 -10 -11 -10 -5 0 -7 5 -4 10 3 6 8 10 11 10 2 0 4 -4 4 -10z
m4935 -25 c83 -8 179 -17 215 -20 125 -11 349 -52 485 -90 128 -36 294 -89
333 -106 23 -10 49 -19 56 -19 8 0 27 -6 43 -14 27 -13 80 -37 153 -68 19 -9
69 -32 110 -51 l75 -36 -1769 -1 c-1558 0 -1768 2 -1750 15 10 8 25 15 32 15
8 0 26 8 40 18 15 10 68 35 117 56 50 21 99 42 110 47 29 12 99 37 190 65 44
14 102 34 129 45 27 10 56 19 64 19 8 0 38 7 66 15 351 101 912 148 1301 110z
m-4984 -44 c-12 -16 -21 -34 -21 -40 0 -6 -5 -11 -11 -11 -5 0 -7 6 -3 13 16
28 46 67 50 67 3 0 -4 -13 -15 -29z m-56 -90 c-8 -17 -19 -33 -25 -36 -5 -3
-1 10 11 29 25 43 36 48 14 7z m-85 -161 c-37 -70 -52 -167 -60 -385 -8 -246
-21 -313 -70 -374 -16 -22 -30 -42 -30 -45 0 -7 -26 -40 -56 -72 -12 -12 -24
-29 -27 -38 -4 -9 -11 -16 -17 -16 -5 0 -10 -4 -10 -9 0 -5 -9 -20 -20 -33
-11 -12 -48 -61 -82 -108 -35 -47 -66 -86 -70 -88 -5 -2 -8 -9 -8 -15 0 -7
-14 -25 -31 -42 l-31 -30 7 35 c12 57 95 332 110 365 8 17 41 102 74 190 32
88 71 186 85 218 14 31 25 60 25 63 0 4 4 10 9 13 5 3 24 40 42 81 45 104 131
272 147 288 7 7 13 18 13 24 0 6 3 9 6 6 3 -4 0 -16 -6 -28z m9904 -202 c23
-33 19 -63 -12 -95 -31 -31 -117 -142 -146 -188 -11 -16 -25 -33 -32 -38 -16
-9 -138 -166 -154 -199 -7 -12 -25 -36 -41 -53 -31 -33 -62 -71 -159 -200 -36
-47 -90 -117 -120 -155 -30 -38 -71 -90 -90 -115 -100 -132 -163 -205 -178
-206 -9 -1 -1314 -2 -2898 -3 -2810 -1 -2882 -1 -2903 -20 -11 -10 -23 -33
-25 -50 -3 -17 -7 -499 -11 -1071 -9 -1777 -17 -2373 -30 -2392 -12 -16 -67
-17 -682 -16 -369 0 -680 4 -692 8 -11 3 -24 17 -27 30 -17 68 -26 3329 -10
3420 6 33 4 45 -12 65 l-20 25 -754 2 c-414 0 -904 -2 -1088 -6 -213 -5 -340
-4 -347 2 -21 16 -15 47 16 75 16 15 36 41 45 57 25 46 64 97 84 110 9 7 33
37 53 66 20 30 44 67 55 83 10 15 28 42 39 60 11 17 42 54 68 81 47 48 117
147 117 164 0 10 89 101 99 101 6 0 42 52 103 150 9 14 41 51 72 83 30 32 81
91 112 132 31 41 61 75 67 75 132 -1 1446 11 1952 19 851 12 4454 13 4750 0
414 -17 1700 -22 2100 -8 204 7 427 13 497 14 69 0 130 3 134 8 15 15 53 6 68
-15z m-9794 -1563 c217 -2 398 -4 402 -4 4 -1 12 -11 19 -22 8 -17 8 -30 -4
-58 -9 -20 -21 -92 -27 -161 -6 -69 -20 -195 -31 -280 -26 -214 -26 -562 1
-790 11 -91 25 -214 31 -274 6 -60 19 -130 29 -156 10 -26 23 -82 29 -124 6
-43 20 -98 30 -124 11 -26 24 -76 31 -112 6 -36 20 -79 30 -96 10 -17 23 -55
29 -83 6 -28 22 -74 36 -101 14 -27 25 -57 25 -67 0 -10 16 -49 35 -87 19 -39
35 -76 35 -83 0 -29 228 -462 266 -503 12 -14 30 -43 39 -65 9 -22 24 -49 35
-60 27 -29 66 -84 90 -127 11 -21 40 -61 64 -91 24 -29 49 -63 55 -74 6 -12
23 -34 38 -50 16 -16 53 -58 83 -93 97 -112 181 -203 276 -297 114 -112 251
-233 264 -233 5 0 25 -15 44 -32 19 -18 53 -46 76 -63 24 -16 57 -45 75 -62
17 -18 41 -33 53 -33 11 0 27 -8 34 -19 7 -10 32 -28 54 -39 23 -12 44 -28 47
-36 3 -8 21 -18 40 -21 18 -4 46 -20 61 -36 15 -16 36 -29 46 -29 11 0 29 -11
42 -23 13 -13 39 -30 58 -37 19 -7 44 -21 55 -30 11 -10 43 -25 72 -34 28 -9
54 -23 57 -31 3 -8 30 -21 60 -30 31 -9 60 -24 65 -33 8 -13 25 -17 83 -18 71
-1 73 -2 76 -27 3 -22 11 -29 45 -37 74 -20 82 -22 97 -35 37 -30 120 -39 136
-14 3 5 21 9 40 9 31 0 34 -3 34 -30 0 -21 8 -35 25 -46 24 -15 28 -15 70 0
24 10 59 16 77 14 27 -2 35 -8 42 -35 9 -29 16 -34 62 -44 28 -6 69 -8 90 -5
21 4 59 8 84 9 38 2 47 -2 55 -20 12 -29 19 -31 131 -45 75 -10 101 -9 130 1
42 15 270 16 310 1 14 -6 51 -10 82 -10 31 0 76 -5 99 -10 27 -6 51 -6 68 0
76 29 290 47 358 30 65 -16 145 -5 237 33 66 27 87 31 176 32 95 1 103 2 133
28 29 24 38 26 85 21 58 -7 99 8 148 54 25 22 32 24 83 18 54 -6 57 -5 91 29
32 32 40 35 93 35 52 0 61 3 75 25 13 20 25 25 58 25 28 0 51 8 72 24 17 13
46 27 64 31 18 4 53 24 78 46 31 27 55 39 75 39 19 0 40 10 56 26 15 15 45 35
69 45 23 10 47 26 54 34 7 8 18 15 24 15 7 0 23 11 36 25 16 17 34 25 58 25
24 0 42 9 65 32 37 37 115 88 134 88 7 0 13 -6 13 -13 0 -14 -79 -93 -120
-120 -14 -9 -43 -30 -65 -46 -22 -17 -62 -46 -90 -65 -176 -123 -211 -146
-219 -146 -5 0 -23 -11 -40 -24 -17 -13 -53 -35 -81 -50 -27 -15 -79 -44 -115
-65 -36 -22 -108 -60 -160 -87 -52 -26 -115 -61 -139 -76 -25 -15 -54 -28 -65
-28 -12 0 -48 -14 -81 -30 -33 -16 -66 -30 -73 -30 -7 0 -38 -13 -69 -30 -31
-16 -65 -30 -75 -30 -11 0 -50 -13 -87 -30 -37 -16 -87 -34 -112 -39 -24 -6
-58 -17 -76 -26 -17 -9 -65 -22 -105 -31 -40 -8 -84 -19 -98 -25 -22 -10 -146
-35 -370 -74 -41 -7 -129 -18 -195 -25 -66 -6 -158 -18 -204 -27 -103 -18
-704 -20 -791 -3 -30 6 -136 20 -235 30 -99 11 -211 28 -250 39 -38 11 -97 22
-130 26 -33 4 -88 18 -123 32 -34 13 -92 29 -128 34 -36 5 -83 18 -104 29 -22
11 -66 26 -98 34 -83 19 -255 87 -397 157 -33 16 -64 29 -69 29 -11 0 -205 98
-311 158 -44 25 -111 62 -149 84 -39 21 -86 51 -105 66 -19 15 -53 38 -76 52
-54 32 -170 117 -293 215 -24 19 -47 35 -51 35 -5 0 -36 27 -69 60 -34 33 -65
60 -69 60 -5 1 -65 56 -134 123 -140 135 -368 388 -457 506 -31 42 -63 83 -70
91 -38 45 -70 88 -92 125 -54 90 -66 109 -97 147 -18 22 -33 46 -33 53 0 7 -6
18 -14 24 -8 7 -27 37 -43 67 -47 93 -67 129 -89 160 -12 16 -24 43 -28 59 -4
17 -18 44 -30 60 -13 17 -26 41 -30 55 -4 14 -20 52 -36 85 -83 176 -145 329
-160 398 -6 27 -17 58 -25 70 -7 12 -23 57 -35 100 -12 43 -28 93 -36 112 -7
18 -19 66 -25 107 -6 40 -18 87 -26 103 -9 17 -24 84 -34 149 -11 66 -28 149
-38 185 -19 62 -30 190 -48 549 -3 56 -8 100 -12 97 -3 -4 -9 -46 -12 -93 -3
-48 -5 41 -5 198 0 157 2 249 3 205 2 -44 8 -84 12 -88 11 -11 25 325 23 517
-2 130 0 151 15 169 33 36 73 47 153 42 41 -3 253 -7 470 -10z m8610 -405 c36
-10 105 -24 153 -30 48 -6 99 -15 113 -20 14 -6 37 -10 52 -10 15 0 39 -6 54
-14 14 -8 49 -17 76 -21 28 -4 65 -17 83 -31 27 -19 45 -24 96 -24 60 0 63 -1
63 -24 0 -26 8 -30 71 -41 27 -5 38 -13 46 -35 7 -19 21 -31 39 -36 18 -4 64
-43 119 -99 124 -127 134 -140 184 -225 25 -41 52 -84 62 -95 9 -11 22 -47 27
-80 6 -33 20 -86 31 -117 31 -85 47 -373 31 -540 -7 -67 -15 -161 -19 -208 -4
-49 -14 -96 -23 -110 -9 -14 -19 -43 -23 -65 -4 -22 -15 -53 -25 -70 -10 -16
-25 -55 -34 -86 -10 -32 -27 -65 -41 -77 -18 -15 -25 -32 -25 -56 0 -30 -12
-46 -81 -118 -45 -46 -104 -109 -132 -140 -52 -61 -91 -77 -85 -36 2 16 12 24
37 29 39 8 51 23 51 63 0 19 10 41 27 58 19 20 26 38 27 70 1 41 0 43 -29 43
-30 0 -30 -1 -30 -53 0 -51 -1 -52 -35 -63 -50 -16 -60 -27 -60 -65 0 -23 -6
-37 -20 -44 -21 -11 -107 -16 -117 -7 -13 14 10 60 38 75 55 30 59 36 52 61
-6 23 -7 23 -14 5 -6 -15 -8 -16 -8 -3 -1 19 -27 33 -36 19 -3 -6 -16 -5 -31
0 -14 6 -38 10 -54 10 -31 0 -48 -15 -27 -23 7 -3 14 -21 15 -41 2 -31 -1 -38
-25 -47 -15 -5 -42 -8 -60 -6 -26 4 -33 1 -33 -12 0 -38 -64 -59 -77 -25 -8
21 8 34 43 37 21 2 29 8 29 22 0 15 -12 24 -50 37 -46 15 -224 16 -2260 17
-2200 1 -2210 1 -2223 -19 -7 -11 -21 -20 -32 -20 -11 0 -28 9 -37 20 -16 18
-30 20 -135 20 -65 0 -118 -4 -118 -9 0 -5 -11 -8 -25 -8 -18 0 -27 6 -31 23
-9 37 -59 33 -79 -6 -11 -21 -23 -30 -40 -30 -27 0 -36 -10 -39 -45 -4 -31
-94 -144 -121 -151 -13 -3 -28 -16 -35 -29 -7 -13 -30 -38 -51 -54 -21 -17
-48 -49 -60 -71 -12 -22 -31 -42 -40 -45 -11 -4 -21 -20 -25 -43 -9 -48 -17
-57 -76 -87 -57 -29 -98 -33 -98 -9 0 26 16 48 63 83 25 18 53 50 64 70 10 20
28 50 41 67 12 17 22 38 22 46 0 15 78 98 91 98 3 0 26 30 49 68 24 37 58 83
75 102 18 19 54 67 79 107 25 39 60 81 76 93 17 12 39 38 50 59 10 21 35 57
56 82 20 24 47 61 60 81 13 20 44 58 69 84 25 26 53 60 61 75 8 16 23 33 34
39 13 7 592 10 1857 10 1024 0 1876 4 1923 9 116 13 208 51 281 119 35 32 63
68 70 90 17 49 16 300 0 340 -10 25 -61 74 -132 130 -9 6 -36 16 -60 21 -24 5
-75 17 -114 27 -65 17 -178 18 -1630 24 -1619 7 -1647 8 -1780 50 -33 10 -86
21 -119 25 -32 4 -79 18 -104 31 -25 13 -55 24 -67 24 -12 0 -49 13 -81 30
-32 16 -72 32 -87 36 -16 3 -58 26 -94 51 -36 24 -88 55 -116 69 -33 15 -84
56 -137 109 -46 47 -88 85 -93 85 -4 0 -16 17 -25 38 -17 37 -32 60 -85 129
-15 20 -34 60 -42 88 -9 29 -27 62 -40 75 -28 26 -32 55 -11 67 8 4 1098 7
2423 5 2328 -3 2410 -4 2473 -22z m-7380 -647 c19 -11 30 -27 34 -52 8 -48 8
-2080 0 -2120 -13 -62 -44 -37 -121 94 -16 27 -131 262 -150 305 -8 19 -23 53
-33 75 -20 43 -37 89 -68 175 -10 30 -25 71 -31 90 -111 312 -162 661 -147
1009 15 360 16 378 43 403 22 21 37 24 146 29 249 11 297 10 327 -8z m2218
-58 c8 -16 12 -84 12 -178 0 -155 18 -304 44 -367 8 -19 24 -60 36 -90 13 -30
26 -57 30 -60 4 -3 18 -25 31 -50 21 -39 73 -115 89 -130 3 -3 16 -18 29 -35
35 -46 156 -170 208 -212 75 -61 94 -84 100 -117 4 -27 -1 -38 -29 -67 -36
-37 -88 -104 -88 -114 0 -3 -9 -15 -20 -27 -10 -12 -17 -24 -15 -28 2 -3 -5
-13 -16 -20 -10 -8 -19 -18 -19 -23 0 -4 -17 -29 -37 -56 -21 -26 -45 -58 -53
-71 -30 -45 -55 -75 -71 -88 -10 -6 -39 -45 -65 -85 -27 -39 -52 -73 -56 -75
-4 -2 -8 -9 -8 -15 0 -12 -43 -57 -53 -57 -8 0 -48 -40 -75 -75 l-22 -27 -10
27 c-6 17 -10 371 -10 1023 0 887 2 1000 16 1020 20 29 38 28 52 -3z m716
-1590 c8 -23 -14 -74 -36 -81 -26 -8 -38 10 -38 59 0 35 1 37 34 37 21 0 36
-6 40 -15z m5171 -185 c10 -16 -15 -40 -41 -40 -30 0 -31 14 -2 34 26 19 35
20 43 6z m-10 -487 c-21 -32 -52 -70 -67 -85 -19 -18 -28 -37 -28 -57 0 -22
-7 -35 -26 -48 -15 -9 -33 -31 -41 -48 -29 -64 -69 -129 -82 -133 -11 -4 -13
4 -7 38 4 23 13 51 20 62 8 11 12 27 9 36 -2 10 11 32 36 56 46 45 46 70 0 54
-20 -7 -29 -17 -29 -31 0 -16 -3 -18 -9 -8 -5 8 -11 9 -15 3 -3 -5 -32 -13
-63 -16 -69 -8 -113 -24 -113 -40 0 -12 -56 -31 -135 -46 -27 -6 -50 -4 -72 5
-68 29 -113 23 -156 -21 -44 -46 -69 -41 -64 11 4 36 4 36 -26 29 -42 -9 -66
-25 -60 -40 8 -21 -55 -47 -99 -41 -45 6 -81 -9 -94 -38 -5 -11 -24 -24 -41
-30 -22 -6 -33 -15 -33 -27 0 -10 -11 -23 -24 -27 -13 -5 -36 -30 -52 -55 -16
-25 -34 -46 -40 -46 -7 0 -14 -7 -18 -15 -3 -8 -11 -15 -18 -15 -7 0 -22 -19
-32 -41 -11 -22 -31 -50 -45 -62 -15 -12 -36 -35 -49 -51 -12 -16 -33 -34 -45
-40 -15 -8 -23 -22 -25 -46 -4 -40 -27 -70 -52 -70 -18 0 -79 -61 -100 -99 -6
-12 -17 -21 -24 -21 -7 0 -19 -12 -26 -26 -8 -14 -26 -32 -40 -39 -14 -7 -63
-52 -109 -99 -45 -47 -88 -86 -94 -86 -9 0 -100 -78 -173 -150 -16 -16 -35
-30 -41 -30 -6 0 -20 -16 -32 -35 -11 -19 -27 -35 -34 -35 -8 0 -28 -13 -45
-30 -18 -17 -43 -30 -56 -30 -16 0 -32 -11 -46 -30 -12 -16 -27 -30 -34 -30
-7 0 -25 -13 -41 -30 -16 -16 -38 -30 -50 -30 -12 0 -34 -13 -50 -30 -20 -21
-38 -30 -61 -30 -26 0 -42 -10 -85 -55 -28 -30 -61 -58 -73 -61 -12 -4 -37
-19 -56 -34 -19 -15 -46 -31 -60 -35 -14 -4 -40 -21 -58 -36 -22 -20 -44 -29
-66 -29 -22 0 -46 -10 -71 -30 -21 -16 -45 -30 -53 -30 -8 0 -31 -12 -50 -26
-19 -15 -53 -31 -76 -36 -22 -5 -53 -20 -67 -34 -20 -19 -41 -27 -85 -31 -43
-4 -66 -12 -84 -29 -18 -17 -43 -25 -85 -30 -48 -5 -65 -12 -87 -35 -23 -24
-35 -29 -77 -29 -39 0 -56 -6 -82 -27 -27 -23 -46 -29 -104 -34 -54 -4 -81
-12 -106 -30 -29 -20 -49 -25 -144 -29 -90 -5 -118 -10 -155 -30 -38 -20 -64
-25 -170 -30 -79 -3 -134 -10 -150 -19 -13 -8 -43 -13 -66 -12 -23 0 -73 -6
-111 -16 -57 -14 -130 -16 -468 -17 -220 -1 -418 3 -439 7 -89 19 2 27 319 27
326 0 519 10 572 31 46 17 151 30 268 34 114 3 159 12 204 42 19 13 44 17 91
16 76 -2 173 20 212 48 19 13 44 19 80 19 39 0 69 8 113 30 33 16 74 30 92 30
42 0 79 18 98 47 13 19 24 23 69 23 43 0 61 5 84 25 18 15 42 25 60 25 43 0
79 15 106 45 15 16 41 28 70 34 26 5 57 18 69 29 12 11 36 24 52 28 17 4 45
20 63 36 18 15 43 28 56 28 13 0 40 11 60 25 21 14 53 32 71 39 62 26 222 137
233 162 9 18 19 24 45 24 34 0 66 19 145 86 36 30 152 110 216 149 18 11 61
49 97 85 35 36 96 92 134 124 151 125 338 304 453 432 34 38 74 83 89 99 44
48 271 332 282 353 6 11 25 37 43 59 18 22 38 48 43 58 12 20 153 47 370 70
193 21 210 23 298 51 43 13 95 24 115 24 20 0 57 10 82 21 25 12 76 32 114 45
38 13 74 27 80 32 6 5 27 15 46 22 19 8 51 24 70 37 54 36 60 13 15 -54z
m-346 -300 c-1 -17 -3 -21 -6 -10 -2 9 -10 17 -16 17 -7 0 -6 4 3 10 20 13 20
13 19 -17z m52 -166 c-8 -8 -11 -5 -11 9 0 27 14 41 18 19 2 -9 -1 -22 -7 -28z
m-188 17 c9 -10 -4 -34 -19 -34 -8 0 -14 9 -14 20 0 19 19 27 33 14z m147 -71
c-1 -18 -29 -43 -49 -43 -25 0 -27 13 -5 34 16 16 54 22 54 9z m-190 -277 c0
-19 -49 -76 -50 -58 0 19 29 72 40 72 6 0 10 -6 10 -14z m-60 -84 c0 -4 -18
-26 -40 -47 -45 -44 -54 -30 -14 22 23 30 54 45 54 25z m-1026 -37 c-4 -8 -11
-15 -16 -15 -6 0 -5 6 2 15 7 8 14 15 16 15 2 0 1 -7 -2 -15z m-4360 -189 c29
-30 77 -66 107 -82 108 -54 88 -54 1594 -54 l1389 0 -49 -24 c-126 -61 -203
-96 -215 -96 -7 0 -27 -8 -44 -18 -17 -10 -58 -27 -91 -37 -33 -9 -80 -26
-105 -35 -25 -10 -74 -26 -110 -35 -36 -9 -84 -25 -108 -36 -23 -10 -55 -19
-70 -19 -16 0 -48 -6 -73 -14 -111 -35 -160 -46 -239 -52 -47 -4 -105 -13
-130 -21 -25 -7 -159 -21 -300 -30 -213 -13 -302 -14 -540 -5 -193 7 -308 16
-355 27 -38 9 -120 22 -181 30 -61 7 -120 18 -130 23 -32 16 -129 42 -160 42
-16 0 -45 8 -64 19 -19 10 -72 28 -117 39 -45 11 -90 25 -100 31 -10 5 -48 19
-83 30 -36 12 -81 30 -101 41 -20 11 -44 20 -52 20 -14 0 -147 57 -192 82 -11
6 -30 17 -42 23 -20 10 -5 14 100 25 78 8 135 19 159 31 21 11 42 19 48 19 12
0 12 0 100 74 36 30 73 55 84 55 10 1 42 -23 70 -53z m-2674 -136 c0 -5 -4
-10 -10 -10 -5 0 -10 5 -10 10 0 6 5 10 10 10 6 0 10 -4 10 -10z m68 -62 c-6
-18 -28 -21 -28 -4 0 9 7 16 16 16 9 0 14 -5 12 -12z m7572 -32 c0 -2 -8 -10
-17 -17 -16 -13 -17 -12 -4 4 13 16 21 21 21 13z m-7505 -26 c3 -5 -1 -10 -10
-10 -9 0 -13 5 -10 10 3 6 8 10 10 10 2 0 7 -4 10 -10z m165 -125 c0 -8 -5
-15 -11 -15 -8 0 -7 -6 2 -17 13 -17 13 -17 -11 -2 -35 23 -38 49 -6 49 16 0
26 -6 26 -15z m70 -65 c0 -5 -4 -10 -9 -10 -6 0 -13 5 -16 10 -3 6 1 10 9 10
9 0 16 -4 16 -10z m264 -166 c28 -11 17 -24 -18 -24 -34 0 -52 11 -39 24 8 8
37 8 57 0z m206 -140 c0 -11 -5 -14 -16 -10 -9 3 -22 6 -30 6 -9 0 -12 5 -9
10 10 17 55 12 55 -6z m118 -61 c2 -8 -5 -13 -17 -13 -21 0 -35 13 -24 24 10
10 36 3 41 -11z m102 -63 c0 -5 -9 -10 -20 -10 -11 0 -20 5 -20 10 0 6 9 10
20 10 11 0 20 -4 20 -10z m140 -55 c11 -13 7 -15 -23 -15 -39 0 -58 16 -30 23
32 8 40 7 53 -8z m124 -51 c29 -11 17 -24 -21 -24 -36 1 -37 2 -19 15 23 17
20 17 40 9z m144 -75 c-2 -6 -7 -10 -11 -10 -4 1 -16 1 -27 1 -11 0 -20 5 -20
10 0 6 14 10 31 10 17 0 29 -5 27 -11z m181 -54 c21 -22 -78 -35 -109 -15 -13
9 -13 11 0 20 13 9 98 5 109 -5z m199 -72 c2 -9 -10 -13 -41 -13 -57 0 -84 9
-65 21 19 13 101 6 106 -8z m206 -49 c35 -13 13 -24 -48 -24 -60 0 -84 8 -69
24 8 8 96 8 117 0z m234 -60 c45 -13 20 -24 -53 -24 -69 0 -86 6 -68 23 8 9
90 9 121 1z m357 -70 c28 -3 57 -7 65 -10 33 -11 -15 -22 -60 -14 -25 5 -91 9
-147 10 -93 0 -133 10 -101 24 13 6 155 0 243 -10z"/>
<path d="M5418 21208 c8 -8 20 -8 44 -1 l33 11 -44 1 c-34 1 -42 -2 -33 -11z"/>
<path d="M5604 14156 c-3 -8 -4 -27 -2 -43 2 -22 9 -29 30 -31 22 -3 29 2 34
23 10 42 -47 90 -62 51z"/>
<path d="M5775 14120 c-3 -5 -4 -14 0 -20 8 -13 35 -1 35 16 0 16 -26 19 -35
4z"/>
<path d="M5874 14070 c-31 -12 -38 -69 -11 -79 11 -4 31 -6 44 -3 21 4 24 9
21 46 -3 44 -16 52 -54 36z"/>
<path d="M10518 13153 c7 -3 16 -2 19 1 4 3 -2 6 -13 5 -11 0 -14 -3 -6 -6z"/>
<path d="M9988 13033 c7 -3 16 -2 19 1 4 3 -2 6 -13 5 -11 0 -14 -3 -6 -6z"/>
<path d="M20472 18559 c-234 -17 -527 -80 -814 -175 -93 -31 -168 -61 -168
-67 0 -22 244 -1 590 53 213 33 369 44 640 45 279 1 415 9 426 26 3 5 16 9 29
9 51 0 32 20 -43 44 -110 34 -212 54 -343 66 -126 11 -153 11 -317 -1z"/>
<path d="M15480 18503 c0 -90 -27 -169 -90 -263 -53 -79 -141 -227 -213 -359
-17 -31 -60 -105 -95 -166 -36 -60 -73 -125 -83 -142 -156 -271 -219 -390
-219 -409 0 -11 5 -25 12 -32 18 -18 91 -14 153 9 48 18 66 33 122 101 71 86
177 178 205 178 30 0 254 400 295 527 31 95 42 290 24 399 -17 97 -73 214
-103 214 -4 0 -8 -26 -8 -57z"/>
<path d="M28386 18148 c-12 -89 -41 -132 -169 -249 -65 -60 -138 -122 -162
-139 -115 -79 -270 -126 -381 -116 -83 7 -162 39 -273 109 -116 73 -148 87
-206 87 -64 0 -131 -35 -245 -127 -101 -80 -165 -116 -249 -136 l-52 -12 7
-40 c8 -55 34 -96 74 -120 31 -18 52 -20 175 -19 165 0 189 7 305 89 46 33 89
55 104 55 15 0 76 -25 136 -55 60 -30 145 -67 187 -82 73 -26 89 -28 243 -28
143 0 174 3 235 22 189 60 344 228 376 407 16 92 7 268 -16 324 -14 35 -59 82
-78 82 -2 0 -8 -24 -11 -52z"/>
<path d="M21960 18057 c19 -47 28 -83 35 -137 2 -14 6 -45 9 -70 44 -317 -23
-693 -183 -1035 -216 -458 -654 -877 -1209 -1155 -399 -200 -773 -309 -1217
-354 -77 -8 -198 -29 -270 -46 -71 -18 -147 -32 -167 -33 -35 -1 -37 -3 -31
-26 11 -46 41 -98 73 -125 63 -52 120 -61 395 -61 266 0 334 7 575 55 295 59
556 150 840 292 363 181 651 397 884 664 l71 81 17 94 c23 126 66 230 188 461
57 106 119 222 138 258 19 36 39 71 44 77 19 23 29 251 18 399 -11 162 -31
273 -67 388 -26 83 -107 251 -143 296 -20 25 -20 25 0 -23z"/>
<path d="M20510 17892 c-54 -24 -74 -54 -85 -127 -10 -76 -29 -110 -210 -385
-317 -481 -390 -601 -607 -1000 -164 -302 -168 -311 -168 -349 0 -62 60 -69
190 -22 47 16 103 35 125 40 39 10 43 15 120 158 113 208 242 423 456 758 279
436 293 461 307 575 l7 55 175 -1 c143 -2 189 -6 254 -23 107 -28 210 -77 274
-129 54 -44 60 -45 41 -10 -6 11 -13 46 -15 77 -11 138 -70 221 -206 290 -46
23 -117 50 -160 60 -119 31 -454 52 -498 33z"/>
<path d="M18000 17828 c0 -60 -46 -119 -152 -196 -31 -23 -59 -51 -63 -62 -10
-32 2 -65 27 -77 13 -6 48 -23 79 -37 49 -23 58 -31 63 -61 10 -52 -21 -102
-96 -157 -77 -57 -151 -133 -208 -213 -63 -89 -119 -143 -175 -173 -43 -22
-64 -26 -145 -27 -148 -2 -160 -12 -277 -230 -135 -252 -183 -381 -184 -493
-1 -71 11 -92 50 -92 36 0 63 20 151 115 41 44 105 110 141 146 37 36 89 105
119 155 29 49 55 91 57 94 3 3 68 8 146 11 153 6 183 15 232 67 43 45 246 353
279 422 30 63 31 69 29 190 -2 69 -4 143 -4 165 -1 22 6 60 16 85 13 34 18 74
18 161 0 133 -15 180 -70 212 l-33 19 0 -24z"/>
<path d="M19865 17795 c-79 -17 -200 -59 -230 -79 -14 -9 -32 -27 -41 -41 -15
-24 -15 -27 15 -71 16 -25 35 -61 41 -80 14 -43 34 -43 91 -2 61 44 227 207
234 229 10 31 -4 59 -28 58 -12 0 -49 -7 -82 -14z"/>
<path d="M14445 17743 c-70 -37 -462 -364 -621 -516 -118 -115 -90 -140 109
-96 170 37 149 18 389 338 193 256 226 329 123 274z"/>
<path d="M23443 17723 c-1 -93 -32 -153 -143 -274 -118 -130 -144 -153 -236
-215 -47 -31 -84 -63 -87 -76 -4 -13 7 -46 29 -88 56 -108 50 -129 -64 -250
-23 -25 -75 -91 -114 -148 -41 -59 -137 -172 -225 -264 -199 -210 -235 -279
-179 -345 50 -58 141 -30 302 95 104 81 178 154 272 271 37 45 92 113 122 149
l54 66 6 134 5 134 63 20 c114 35 235 164 282 302 40 118 36 355 -6 439 -17
33 -63 87 -74 87 -4 0 -7 -17 -7 -37z"/>
<path d="M19550 17428 c-25 -5 -125 -25 -222 -44 -211 -41 -248 -54 -399 -131
-111 -58 -248 -101 -271 -87 -29 18 24 -117 59 -148 53 -49 220 -71 363 -49
81 13 300 95 313 117 5 8 42 49 83 92 82 84 174 212 174 243 0 22 -24 23 -100
7z"/>
<path d="M13643 17393 c-51 -4 -52 -5 -215 -157 -90 -85 -197 -189 -238 -231
-69 -72 -73 -77 -45 -72 17 3 86 15 155 27 l125 22 140 137 c77 75 174 169
215 208 l76 71 -81 -1 c-44 0 -103 -2 -132 -4z"/>
<path d="M24471 17358 c0 -13 -3 -68 -6 -123 -7 -96 -6 -104 25 -200 85 -260
37 -471 -182 -797 -97 -145 -73 -157 74 -35 65 54 91 98 136 229 22 62 61 172
87 243 26 72 47 140 46 153 0 12 -14 73 -30 135 -16 61 -32 144 -36 182 -11
125 -24 172 -56 205 -36 36 -59 39 -58 8z"/>
<path d="M19937 17323 c-4 -3 -35 -9 -69 -12 -54 -5 -63 -9 -64 -26 0 -11 11
-32 24 -47 13 -14 24 -29 24 -32 -1 -25 14 -45 36 -51 25 -7 26 -8 7 -15 -17
-7 -15 -9 11 -9 29 -1 37 7 93 92 33 51 61 96 61 100 0 9 -114 9 -123 0z"/>
<path d="M16640 17271 c-17 -4 -43 -33 -77 -86 -29 -43 -53 -83 -53 -87 0 -13
28 -9 34 5 5 9 7 9 12 -1 3 -6 11 -9 17 -5 13 9 19 10 45 12 10 0 27 8 38 16
18 13 18 14 -6 9 -21 -4 -22 -3 -5 5 12 5 25 5 33 -2 7 -5 15 -7 19 -3 3 3 0
6 -7 6 -9 0 -5 9 10 25 13 14 29 25 36 25 7 0 11 8 9 20 -2 11 -1 19 3 19 19
-3 30 2 36 17 3 8 2 13 -3 10 -4 -3 -22 -1 -40 4 -17 5 -31 5 -31 1 0 -5 -11
-8 -24 -8 -17 0 -23 4 -19 13 3 8 4 14 2 13 -2 -1 -15 -4 -29 -8z"/>
<path d="M16773 17213 c9 -2 23 -2 30 0 6 3 -1 5 -18 5 -16 0 -22 -2 -12 -5z"/>
<path d="M24003 17197 c7 -5 -3 -6 -24 -3 -36 6 -37 6 -48 -39 -8 -31 -30 -68
-68 -113 l-57 -67 58 -8 c53 -8 61 -6 83 15 20 18 35 23 79 22 51 0 100 -17
116 -39 10 -14 153 -20 144 -6 -9 14 9 14 36 0 18 -10 20 -9 14 7 -4 11 -10
28 -12 39 -2 10 -14 59 -26 107 l-23 88 -85 2 c-181 4 -199 4 -187 -5z m90 -4
c-7 -2 -19 -2 -25 0 -7 3 -2 5 12 5 14 0 19 -2 13 -5z"/>
<path d="M25813 17183 c9 -2 25 -2 35 0 9 3 1 5 -18 5 -19 0 -27 -2 -17 -5z"/>
<path d="M25708 17169 c-175 -7 -238 -14 -238 -28 0 -5 -16 -12 -35 -15 -35
-7 -46 -20 -22 -29 6 -3 3 -6 -8 -7 -30 -1 53 -29 95 -31 25 -2 20 -4 -20 -8
l-55 -6 85 -18 c47 -9 110 -18 140 -18 30 -1 45 -4 32 -6 -40 -8 -12 -23 43
-23 30 0 88 -5 129 -11 42 -6 87 -8 101 -5 22 6 25 12 25 49 0 56 -36 127 -75
147 -25 14 -56 15 -197 9z m-155 -136 c-7 -2 -19 -2 -25 0 -7 3 -2 5 12 5 14
0 19 -2 13 -5z"/>
<path d="M26166 17085 c-8 -84 -42 -158 -111 -252 -30 -40 -80 -107 -112 -149
-82 -111 -137 -169 -238 -253 -168 -139 -364 -258 -501 -302 -114 -37 -148
-99 -83 -153 76 -64 262 -9 499 149 181 121 222 161 335 334 115 175 200 326
234 416 12 33 33 83 47 112 24 47 24 53 11 80 -9 15 -28 41 -45 56 l-29 28 -7
-66z"/>
<path d="M29222 17080 c5 -50 36 -98 54 -82 4 4 4 -1 1 -10 -4 -13 -1 -18 10
-18 9 0 13 -3 10 -6 -3 -4 -2 -15 4 -25 10 -20 13 -127 5 -169 -10 -45 -48
-155 -58 -167 -17 -21 -88 -217 -95 -260 -8 -57 11 -64 85 -30 127 58 158 70
175 70 15 0 17 13 17 141 0 202 -18 284 -76 346 -17 18 -26 45 -33 92 -10 74
-21 100 -59 141 -37 39 -45 34 -40 -23z"/>
<path d="M27555 17109 c-28 -6 -26 -7 13 -8 42 -1 53 3 30 11 -7 2 -26 1 -43
-3z"/>
<path d="M27865 17002 c0 -53 -4 -116 -7 -140 -8 -48 9 -56 27 -12 6 13 22 48
36 77 l26 54 -19 38 c-10 21 -29 48 -41 59 l-22 21 0 -97z"/>
<path d="M12928 17073 c7 -3 16 -2 19 1 4 3 -2 6 -13 5 -11 0 -14 -3 -6 -6z"/>
<path d="M12714 17060 c-95 -14 -198 -55 -174 -70 11 -7 11 -11 1 -24 -8 -10
-9 -16 -3 -16 6 0 14 5 17 10 10 16 25 12 19 -5 -5 -11 1 -15 24 -15 17 0 32
-6 36 -15 3 -8 16 -15 30 -15 14 0 27 -4 31 -9 9 -15 262 -2 365 18 33 6 -12
9 -162 10 -226 1 -229 2 -187 55 26 33 64 53 136 70 l58 14 -70 0 c-38 0 -93
-4 -121 -8z"/>
<path d="M16165 16678 c-65 -68 -142 -152 -171 -188 -59 -73 -189 -296 -199
-340 -15 -69 41 -91 111 -44 119 81 375 339 462 467 49 73 79 105 114 127 26
17 48 34 48 40 0 12 -36 12 -65 1 -27 -11 -69 3 -106 33 -52 44 -66 37 -194
-96z"/>
<path d="M27741 16685 c-130 -123 -286 -312 -366 -444 -50 -83 -66 -130 -53
-154 20 -39 93 6 233 142 59 58 82 90 146 213 85 160 122 253 117 289 -3 22
-9 18 -77 -46z"/>
<path d="M25348 16684 c-21 -15 -40 -35 -43 -45 -4 -11 -11 -19 -16 -19 -6 0
-7 -5 -4 -11 12 -18 115 60 115 88 0 19 -11 16 -52 -13z"/>
<path d="M23770 16553 c-14 -9 -73 -67 -132 -129 -137 -141 -142 -174 -35
-219 59 -25 86 -20 127 24 76 79 133 302 86 333 -15 10 -17 10 -46 -9z"/>
<path d="M14715 16480 c-74 -55 -104 -66 -215 -80 -150 -20 -170 -37 -266
-230 -73 -148 -86 -203 -47 -208 29 -4 70 18 143 78 33 28 84 63 113 77 46 24
63 27 144 26 l92 -1 12 30 c7 17 37 62 67 101 79 102 92 127 92 175 0 43 -25
82 -54 82 -7 0 -44 -22 -81 -50z"/>
<path d="M28419 16499 c-106 -75 -192 -183 -223 -277 -35 -107 -37 -233 -3
-254 26 -16 75 -7 114 21 57 41 80 74 88 126 11 77 34 154 75 257 47 116 52
158 17 158 -13 0 -44 -14 -68 -31z"/>
<path d="M15373 16489 c-50 -25 -74 -55 -143 -179 -64 -117 -107 -178 -190
-273 -84 -95 -146 -143 -204 -159 -42 -11 -51 -10 -79 6 -31 18 -32 18 -47 -5
-35 -53 -96 -101 -246 -195 -87 -55 -186 -115 -219 -134 -33 -18 -103 -61
-155 -94 -167 -105 -341 -178 -455 -191 -110 -12 -126 -12 -150 1 l-24 12 18
-49 c32 -83 105 -154 192 -185 59 -21 237 -29 326 -15 98 15 168 43 258 102
85 55 451 334 503 383 32 30 57 93 64 161 3 28 6 30 38 28 103 -7 199 -7 231
0 35 7 36 9 43 65 16 132 120 376 230 539 110 163 111 164 99 181 -15 25 -43
25 -90 1z"/>
<path d="M14095 16358 c-44 -4 -109 -10 -145 -14 -36 -3 -69 -10 -74 -15 -6
-5 -20 -9 -33 -9 -27 0 -60 -56 -188 -315 -104 -211 -127 -277 -123 -358 l3
-61 140 -28 c77 -15 185 -34 239 -43 l100 -15 40 26 c22 15 133 98 247 186
169 130 209 165 213 189 3 16 9 43 12 59 l6 31 -64 -36 c-132 -76 -322 -165
-349 -165 -58 0 -99 37 -99 90 0 29 30 100 117 276 117 241 109 214 71 212
-18 -1 -69 -5 -113 -10z"/>
<path d="M28756 16341 c-3 -5 -44 -14 -90 -21 l-85 -12 -7 -45 c-9 -62 2 -188
21 -242 8 -24 15 -45 15 -46 0 -8 -195 -128 -243 -151 -105 -47 -252 -23 -297
51 -24 39 -25 75 -4 183 9 45 15 85 12 87 -3 3 -25 -4 -49 -15 -56 -25 -134
-25 -254 -1 l-89 18 -125 -89 c-206 -148 -301 -183 -353 -130 -36 35 -31 126
10 216 l32 68 -68 -4 c-50 -3 -82 -12 -130 -36 -34 -18 -71 -32 -80 -32 -20 0
-90 -118 -135 -225 -55 -131 -61 -284 -15 -367 26 -48 40 -53 180 -64 83 -6
89 -6 135 21 105 62 248 183 471 399 146 142 161 151 162 91 0 -44 32 -144 71
-223 97 -198 270 -308 443 -280 119 18 216 79 377 235 l116 113 55 0 c138 0
235 40 370 152 l88 73 0 73 c0 39 -2 72 -5 72 -3 0 -38 -24 -78 -54 -124 -93
-207 -118 -252 -76 l-22 20 48 98 c26 53 51 109 54 125 l7 27 -140 0 c-78 0
-143 -4 -146 -9z"/>
<path d="M14926 16261 l-57 -71 3 -72 3 -72 80 80 c84 83 161 172 154 178 -2
2 -17 6 -34 9 -16 3 -44 8 -61 12 -28 6 -34 2 -88 -64z"/>
<path d="M16758 16313 c-36 -6 -105 -68 -113 -102 -3 -14 -7 -78 -8 -141 -3
-123 -14 -160 -48 -160 -52 0 -97 48 -120 129 l-17 56 -20 -46 c-11 -26 -35
-91 -52 -145 -50 -154 -53 -325 -6 -389 16 -22 22 -23 308 -32 l158 -4 70 46
c117 79 257 201 433 378 l167 169 0 74 0 75 -97 -76 c-279 -217 -407 -294
-503 -302 -71 -7 -111 12 -135 63 -32 68 -12 261 42 400 5 14 -4 15 -59 7z"/>
<path d="M12110 16278 c0 -25 3 -29 18 -23 9 4 25 10 35 12 9 3 17 9 17 14 0
5 7 9 16 9 8 0 13 4 9 10 -3 5 -26 9 -50 8 -43 0 -45 -2 -45 -30z"/>
<path d="M15463 16239 c-20 -26 -76 -144 -100 -214 -46 -129 -42 -299 8 -403
21 -42 22 -43 68 -41 25 0 87 -4 136 -10 160 -19 163 -18 252 47 100 75 267
229 386 357 51 55 124 130 164 167 73 69 74 74 19 85 -33 6 -82 -24 -97 -59
-52 -133 -92 -188 -154 -213 -40 -17 -139 -20 -181 -5 -23 8 -41 7 -73 -5 -91
-32 -188 -11 -211 46 -17 40 -8 111 22 187 l26 62 -62 0 c-33 0 -90 3 -126 6
-49 5 -68 3 -77 -7z"/>
<path d="M19179 16212 c-23 -3 -33 -19 -82 -127 -66 -143 -94 -237 -103 -342
l-7 -75 31 7 c17 3 39 2 50 -4 24 -13 220 -23 227 -11 3 4 -1 11 -7 13 -9 4
-10 6 -1 6 8 1 5 16 -9 47 -11 26 -22 59 -25 75 -6 41 15 107 37 119 11 6 20
21 20 34 0 31 31 118 68 193 18 34 28 64 23 67 -9 6 -170 4 -222 -2z"/>
<path d="M24965 16192 c-11 -9 -36 -48 -54 -85 -19 -38 -45 -76 -58 -84 -33
-22 -91 -10 -183 36 -41 21 -101 44 -132 50 l-57 12 -93 -66 c-204 -147 -334
-205 -473 -213 -49 -2 -105 0 -123 5 l-34 8 73 50 c82 56 214 161 242 193 l19
20 -64 -20 c-46 -14 -77 -18 -116 -14 -50 6 -54 5 -107 -39 -31 -24 -68 -51
-83 -59 -15 -8 -39 -31 -55 -50 -50 -64 -131 -70 -286 -21 -87 28 -156 72
-174 113 -6 15 -17 31 -24 35 -8 5 -11 12 -8 17 9 15 -34 21 -115 18 l-74 -3
-9 -35 c-20 -81 -38 -116 -70 -137 -44 -30 -91 -30 -122 1 l-25 25 -67 -31
c-51 -23 -87 -32 -144 -36 -89 -5 -136 7 -185 50 -28 25 -35 27 -40 14 -8 -20
-33 -20 -62 0 -22 15 -111 142 -125 176 -5 14 -16 16 -64 11 -32 -3 -67 -9
-78 -14 l-20 -8 20 -1 c18 -1 18 -2 -3 -11 -22 -8 -23 -13 -17 -71 16 -163 79
-378 111 -378 8 0 14 -4 14 -9 0 -5 26 -12 58 -16 31 -3 102 -17 157 -30 55
-13 144 -26 197 -30 l98 -7 66 47 c87 62 241 212 329 319 39 46 73 85 76 85 3
1 11 -33 17 -75 16 -99 57 -177 141 -262 72 -73 148 -127 228 -160 44 -19 71
-22 183 -22 121 0 136 2 208 30 173 67 432 252 653 467 l66 65 7 -94 c16 -214
87 -371 209 -459 l40 -29 225 0 226 0 80 39 c45 22 122 71 171 108 92 70 298
268 398 383 l57 65 0 -55 c1 -130 69 -344 130 -408 38 -40 67 -45 116 -21 48
23 103 85 278 316 59 78 134 173 167 212 l59 70 -33 -5 c-17 -3 -52 -9 -77
-14 -25 -5 -79 -12 -120 -16 -56 -5 -83 -13 -106 -30 -34 -26 -64 -30 -82 -12
-7 7 -37 10 -76 9 -57 -2 -73 2 -126 30 -51 27 -71 32 -117 30 -54 -2 -62 -6
-142 -70 -94 -74 -237 -182 -255 -192 -48 -28 -202 -91 -251 -104 -178 -46
-312 9 -361 147 -22 63 -31 198 -13 199 8 0 41 13 74 29 l60 28 -65 1 c-47 0
-70 -4 -85 -17z"/>
<path d="M17701 16143 c-18 -83 -46 -119 -173 -227 -62 -52 -144 -123 -183
-157 -164 -144 -403 -312 -541 -382 -154 -77 -418 -154 -454 -132 -5 3 -10 1
-10 -6 0 -8 -4 -8 -15 1 -8 7 -15 9 -15 5 0 -4 -7 -1 -16 6 -15 12 -16 11 -9
-11 53 -172 185 -239 446 -227 196 9 335 70 557 246 149 118 466 432 494 490
21 42 23 60 23 206 0 175 -9 214 -51 234 -38 17 -40 15 -53 -46z"/>
<path d="M29486 16148 c-13 -93 -47 -136 -181 -223 -140 -92 -214 -123 -362
-150 -104 -19 -143 -40 -243 -130 -245 -220 -507 -303 -791 -249 -137 25 -152
49 -174 272 -8 79 -22 111 -52 118 -28 8 -37 2 -269 -173 -252 -190 -451 -293
-591 -308 -32 -4 -60 -8 -62 -11 -2 -2 -12 1 -22 6 -17 10 -18 8 -3 -32 48
-139 142 -188 354 -188 213 0 322 53 575 279 50 44 93 81 97 81 4 0 30 -33 57
-73 92 -137 220 -224 361 -247 83 -13 237 -13 319 0 139 23 267 98 420 247
l96 94 92 15 c50 7 117 23 148 35 71 26 187 104 259 172 70 67 80 101 80 282
0 155 -13 202 -60 224 -38 17 -41 15 -48 -41z"/>
<path d="M22038 16143 c7 -3 16 -2 19 1 4 3 -2 6 -13 5 -11 0 -14 -3 -6 -6z"/>
<path d="M12535 16124 c-27 -8 -58 -12 -67 -10 -11 2 -15 -1 -11 -10 3 -9 -1
-14 -12 -14 -9 0 -14 4 -11 9 4 5 -11 5 -35 0 -22 -5 -46 -9 -52 -8 -26 3 -55
-14 -52 -29 5 -34 -18 -72 -83 -140 -90 -93 -122 -130 -122 -141 0 -5 -7 -14
-15 -21 -12 -10 -13 -16 -4 -26 9 -11 8 -14 -2 -15 -23 -1 24 -18 51 -18 21
-1 73 45 250 218 124 121 223 220 220 220 -3 -1 -27 -7 -55 -15z"/>
<path d="M20965 16091 c-16 -5 -65 -25 -108 -45 -42 -20 -79 -36 -82 -36 -3 0
-51 -22 -108 -49 -56 -26 -131 -58 -167 -70 -36 -13 -85 -31 -110 -41 -25 -10
-76 -28 -115 -39 -38 -12 -87 -26 -107 -32 -36 -11 -68 -7 -68 8 0 4 26 19 57
33 109 47 286 141 323 170 21 17 42 30 48 30 9 0 42 43 42 55 0 3 -13 -1 -29
-9 -61 -32 -237 -98 -352 -132 -197 -58 -345 -84 -523 -91 l-158 -6 43 -21
c76 -36 86 -95 27 -155 -17 -17 -25 -31 -19 -31 7 0 10 -4 7 -9 -3 -4 41 -16
97 -25 56 -9 121 -21 144 -26 23 -6 118 -10 212 -10 168 0 170 0 258 34 280
107 561 263 773 430 70 55 79 66 58 66 -14 0 -45 2 -69 4 -24 3 -57 1 -74 -3z"/>
<path d="M26639 15908 c-28 -29 -102 -114 -164 -188 -184 -220 -287 -295 -436
-316 -41 -6 -77 17 -85 56 -2 14 -9 76 -14 139 -13 154 -36 187 -101 143 -15
-9 -69 -51 -120 -93 -152 -122 -251 -183 -394 -240 -109 -43 -160 -56 -299
-74 -124 -17 -332 -18 -352 -3 -7 5 -16 8 -20 7 -13 -3 -46 12 -68 30 -14 12
-10 -2 15 -49 70 -134 192 -223 349 -256 106 -22 374 -15 482 14 152 41 289
118 447 251 46 39 87 71 91 71 5 0 23 -27 41 -60 62 -117 116 -143 294 -142
155 0 185 10 273 100 64 64 73 77 67 100 -20 80 2 293 45 435 43 142 32 158
-51 75z"/>
<path d="M11899 15893 c-13 -16 -12 -17 4 -4 9 7 17 15 17 17 0 8 -8 3 -21
-13z"/>
<path d="M11850 15850 c-9 -6 -10 -10 -3 -10 6 0 15 5 18 10 8 12 4 12 -15 0z"/>
<path d="M16164 15774 c-16 -9 -40 -26 -54 -39 -14 -13 -92 -72 -175 -131
-151 -108 -314 -195 -423 -228 -78 -23 -198 -32 -217 -16 -49 40 18 -94 75
-151 70 -70 121 -84 305 -83 128 1 159 4 209 22 68 25 175 90 256 155 l54 44
-2 89 c-2 49 4 130 12 179 27 160 20 190 -40 159z"/>
<path d="M24350 15709 c-170 -121 -377 -232 -534 -285 -140 -48 -314 -55 -491
-19 -44 9 -87 19 -95 22 -8 3 -19 5 -23 4 -15 -3 -71 51 -83 78 -6 14 -19 60
-29 101 -40 170 -66 176 -216 53 -264 -217 -478 -311 -729 -318 -90 -3 -110
-1 -138 16 l-33 19 32 -60 c95 -178 227 -239 493 -227 195 8 321 62 506 217
52 44 100 80 105 80 6 0 40 -30 75 -66 160 -162 318 -224 570 -224 251 0 425
66 688 259 66 49 89 70 81 78 -7 7 -14 73 -18 156 -9 205 -23 215 -161 116z"/>
<path d="M25515 15039 c-44 -4 -123 -18 -175 -30 -194 -45 -217 -49 -297 -49
-164 0 -236 -30 -328 -134 -39 -45 -87 -83 -156 -126 -54 -33 -142 -94 -194
-135 l-96 -75 -9 26 c-6 14 -10 31 -10 37 0 7 -11 35 -24 63 -26 56 -65 91
-142 126 -45 21 -63 23 -224 23 -157 -1 -181 -3 -231 -23 -118 -47 -211 -128
-319 -276 -34 -47 -69 -86 -77 -86 -7 0 -31 9 -51 19 -67 34 -154 52 -282 58
-273 12 -480 -49 -683 -204 l-58 -45 -127 3 c-138 3 -284 4 -517 2 -173 -1
-259 -19 -382 -79 l-74 -37 -52 56 c-68 74 -138 105 -257 117 -108 12 -241 0
-319 -28 -51 -19 -58 -19 -105 -5 -28 8 -54 17 -58 20 -5 2 -8 61 -8 131 0 78
-6 152 -15 191 -39 166 -142 262 -333 313 -102 26 -348 28 -467 3 -268 -56
-559 -212 -810 -433 -38 -34 -73 -62 -77 -62 -4 0 -21 28 -36 63 -38 82 -101
140 -179 163 -68 20 -284 23 -348 6 -70 -20 -129 -65 -173 -133 -63 -96 -53
-92 -129 -56 l-68 32 -165 0 c-136 0 -172 -3 -205 -18 -66 -30 -115 -68 -161
-128 l-43 -57 -148 0 c-130 0 -157 -3 -222 -24 l-74 -25 -71 19 c-39 10 -76
20 -83 23 -8 3 -3 22 18 62 61 118 63 368 5 488 -97 197 -424 246 -1281 189
-266 -17 -526 -46 -729 -80 -166 -28 -421 -90 -503 -123 -169 -67 -282 -151
-328 -245 -53 -109 -56 -356 -4 -475 27 -64 92 -123 168 -153 49 -19 77 -22
226 -24 137 -1 170 -4 168 -15 -1 -8 -29 -86 -63 -174 -114 -298 -230 -696
-282 -972 -30 -159 -33 -482 -5 -582 24 -86 51 -138 96 -184 79 -84 180 -112
383 -105 152 5 205 21 271 86 71 69 98 209 78 398 -11 91 -10 106 9 167 21 68
36 81 61 51 26 -31 97 -73 160 -94 47 -16 97 -24 189 -27 159 -7 273 12 377
61 41 20 81 36 88 36 6 0 28 -15 47 -34 83 -81 199 -112 388 -104 147 6 201
29 299 123 37 36 73 65 80 65 7 0 38 -16 69 -35 76 -46 153 -65 300 -72 l124
-6 -31 -24 c-75 -59 -108 -179 -98 -358 9 -163 65 -273 174 -343 83 -54 125
-64 278 -69 239 -8 336 28 495 187 53 52 114 117 136 144 l39 49 84 -21 c139
-36 241 -45 440 -39 405 10 716 124 1014 371 38 31 71 56 74 56 3 0 42 -7 86
-16 59 -12 114 -15 202 -12 152 6 205 27 304 123 37 36 73 65 80 65 7 0 38
-16 69 -35 32 -19 86 -42 122 -52 64 -17 76 -17 420 -11 25 0 110 -3 190 -7
167 -8 250 4 358 55 75 35 90 36 140 11 57 -29 142 -41 286 -41 l131 0 50 -36
c119 -84 224 -108 448 -101 131 3 176 9 235 27 40 13 74 21 77 18 3 -2 14 -40
25 -83 35 -136 97 -213 206 -255 51 -20 78 -23 204 -23 176 0 237 17 295 86
52 60 59 98 60 302 0 149 4 189 19 234 l19 54 143 -7 c79 -4 150 -9 158 -12 8
-3 17 -27 21 -57 11 -79 42 -141 94 -190 l48 -43 5 -130 c9 -199 50 -280 173
-336 46 -21 64 -23 220 -23 152 0 175 2 216 21 105 49 157 137 244 409 31 99
66 194 76 212 12 18 76 71 152 124 73 51 167 119 209 151 42 32 79 58 82 58 2
0 12 -24 21 -52 82 -251 271 -360 600 -345 185 9 334 56 515 163 179 107 305
233 351 354 31 79 38 264 14 383 -15 77 -16 99 -5 189 24 195 -4 385 -70 476
-70 98 -171 141 -345 151 l-120 6 4 140 c5 225 -21 349 -99 458 -78 109 -222
176 -420 197 -113 11 -147 11 -265 -1z m281 -74 c70 -20 142 -71 171 -122 22
-39 23 -44 8 -49 -11 -5 -30 6 -58 34 -63 61 -124 85 -235 90 -108 5 -164 -4
-362 -60 -143 -40 -145 -40 -214 -27 l-70 13 -75 -82 c-52 -55 -103 -97 -161
-132 -221 -135 -440 -354 -440 -441 0 -25 4 -28 42 -31 46 -3 57 -17 33 -42
-21 -21 -63 -21 -87 1 -25 23 -34 9 -14 -22 28 -42 79 -35 146 20 69 57 102
59 40 3 -86 -78 -124 -92 -179 -64 -66 35 -80 115 -35 205 56 112 279 314 471
427 68 40 109 74 155 125 79 88 105 103 156 89 20 -5 43 -14 50 -19 8 -5 69 8
160 34 81 23 181 48 222 55 41 6 82 13 90 15 27 6 134 -5 186 -20z m-9767 -16
c82 -13 156 -45 182 -77 18 -23 18 -27 4 -35 -12 -6 -34 -1 -73 16 -32 14 -89
30 -129 36 -90 14 -395 14 -629 1 -752 -43 -1257 -145 -1413 -285 -43 -39 -93
-49 -84 -16 8 33 86 98 158 134 237 117 660 188 1370 230 133 8 557 6 614 -4z
m3785 -116 c56 -18 150 -102 144 -130 -5 -28 -25 -25 -65 10 -72 64 -96 72
-223 72 -99 -1 -126 -5 -194 -28 -201 -70 -420 -206 -584 -362 -88 -84 -182
-200 -182 -226 0 -4 26 -9 58 -11 50 -3 57 -6 60 -25 4 -29 8 -29 48 2 58 44
56 27 -5 -47 -67 -83 -108 -158 -117 -217 -6 -39 -4 -44 34 -79 22 -20 94 -66
159 -102 327 -179 443 -302 443 -469 0 -119 -59 -234 -182 -353 -271 -263
-712 -406 -1062 -343 -252 45 -310 195 -140 361 125 122 291 161 739 171 285
6 282 5 344 99 39 60 39 84 -1 130 -37 41 -65 60 -210 140 -332 183 -423 309
-374 518 63 269 385 599 774 795 216 108 394 140 536 94z m4123 -139 c12 -8
27 -23 33 -34 9 -17 7 -20 -14 -26 -13 -3 -33 -1 -44 5 -29 15 -76 14 -117 -4
-50 -20 -140 -108 -197 -193 -59 -87 -128 -227 -128 -259 0 -22 4 -23 64 -23
60 0 97 -16 79 -33 -3 -4 -2 -7 3 -7 5 1 27 23 48 50 22 28 41 48 43 46 2 -2
-54 -122 -126 -267 -140 -286 -164 -339 -153 -339 4 0 68 39 142 87 193 125
271 163 330 163 72 0 106 -34 101 -102 -2 -25 -83 -82 -281 -198 -96 -56 -179
-105 -183 -109 -5 -5 43 -14 105 -20 144 -15 272 -38 317 -57 82 -34 105 -93
54 -134 -23 -18 -37 -21 -88 -17 -348 25 -557 37 -599 35 l-50 -3 -39 -110
c-51 -147 -97 -326 -97 -381 0 -31 8 -60 26 -89 22 -38 24 -47 13 -67 -31 -59
-98 -66 -155 -16 -75 66 -90 161 -59 355 49 302 258 921 427 1261 190 383 406
576 545 486z m-5727 -119 c31 -16 50 -43 50 -69 0 -21 -43 -21 -60 -1 -31 37
-79 8 -118 -70 -20 -41 -82 -238 -82 -262 0 -9 18 -13 69 -13 39 0 73 -4 76
-10 13 -21 24 -8 51 63 29 75 44 102 44 77 0 -29 -70 -313 -136 -553 -158
-580 -300 -941 -476 -1207 -77 -118 -232 -277 -306 -314 -98 -49 -190 -32
-261 50 -62 70 -69 137 -20 178 47 39 93 36 135 -11 l35 -38 25 30 c55 67 196
287 247 387 30 59 74 154 96 212 46 117 113 342 109 364 -2 8 -25 -19 -53 -59
-99 -145 -226 -253 -324 -274 -44 -9 -110 10 -153 45 -45 37 -87 116 -98 185
-34 210 90 737 234 995 39 70 105 136 144 144 39 9 95 -14 117 -48 27 -41 20
-91 -35 -246 -178 -500 -214 -649 -179 -748 22 -63 74 -49 156 42 65 71 135
184 232 376 87 172 264 551 276 590 14 49 78 161 103 180 30 24 63 25 102 5z
m-3362 -67 c2 -9 -17 -47 -41 -85 -69 -108 -127 -218 -127 -241 0 -21 5 -22
84 -22 62 0 87 -4 96 -15 19 -23 27 -19 66 35 20 28 39 49 42 46 2 -3 -35 -87
-83 -187 -256 -535 -485 -1123 -530 -1364 -17 -89 -15 -100 26 -154 40 -50 9
-132 -56 -150 -41 -11 -107 2 -145 29 -15 11 -38 41 -51 67 -22 44 -24 60 -23
183 0 147 21 265 90 518 118 434 261 806 395 1029 81 135 207 320 221 326 19
8 33 2 36 -15z m4892 -4 c0 -25 -56 -131 -117 -219 -62 -89 -77 -121 -63 -130
6 -4 10 -10 10 -15 0 -19 -75 -78 -114 -91 -25 -7 -34 -14 -24 -16 20 -5 102
36 180 88 31 22 60 39 64 39 14 0 -42 -53 -102 -96 -103 -74 -179 -90 -204
-43 -17 30 15 85 126 219 52 63 120 152 151 198 36 52 63 82 75 82 10 0 18 -7
18 -16z m6012 -55 c-7 -29 -37 -101 -67 -161 -30 -60 -55 -113 -55 -119 0 -5
20 -9 44 -9 39 0 45 -3 53 -26 l9 -27 47 53 c26 29 47 46 47 38 0 -20 -120
-195 -213 -311 -256 -318 -461 -499 -899 -797 -67 -45 -95 -104 -186 -391 -55
-173 -86 -232 -137 -256 -48 -23 -108 -5 -136 40 -18 28 -20 43 -15 117 3 47
16 129 29 183 l24 97 -39 0 c-70 0 -149 46 -169 99 -22 57 30 121 98 121 78 0
157 49 192 119 10 20 85 243 165 496 208 651 193 607 201 567 4 -18 12 -35 16
-38 5 -3 9 -23 9 -45 l0 -39 72 0 c52 0 76 -4 89 -16 17 -15 20 -12 51 50 33
68 53 87 42 39 -4 -16 -55 -182 -114 -371 -59 -188 -104 -345 -101 -347 4 -2
63 41 131 96 356 284 631 583 741 806 24 48 48 91 54 95 21 15 28 -12 17 -63z
m-2752 -84 c110 -60 156 -166 126 -296 -42 -185 -180 -369 -279 -372 -41 -1
-77 25 -77 55 0 11 23 63 50 115 58 110 83 186 78 240 l-3 38 -51 3 c-171 10
-402 -205 -549 -513 -105 -219 -124 -415 -49 -505 31 -36 69 -45 137 -30 83
17 166 73 320 217 78 73 156 140 174 150 30 16 34 16 68 0 50 -24 72 -76 55
-131 -34 -115 -191 -259 -403 -371 -115 -61 -198 -87 -279 -87 -160 0 -277 87
-339 251 -99 264 46 696 332 996 183 191 358 278 549 272 72 -3 93 -7 140 -32z
m-6031 -172 c51 -39 66 -70 65 -136 -1 -75 -17 -124 -134 -398 -90 -212 -132
-329 -144 -404 -7 -38 -5 -41 29 -59 105 -57 129 -165 44 -195 -102 -36 -223
20 -284 130 -29 53 -30 57 -29 189 1 124 4 145 37 260 20 68 35 125 33 127 -5
5 -104 -138 -230 -329 -147 -225 -251 -363 -318 -423 -51 -45 -54 -47 -104
-43 -169 14 -198 182 -93 545 102 355 294 680 436 739 72 31 160 -3 189 -72
38 -92 0 -174 -81 -174 -30 0 -58 -42 -130 -195 -84 -179 -186 -457 -152 -415
6 9 79 106 161 215 285 382 481 606 566 648 42 21 102 17 139 -10z m3770 0
c51 -39 66 -70 65 -136 -1 -75 -17 -124 -134 -398 -90 -212 -132 -329 -144
-404 -7 -38 -5 -41 29 -59 105 -57 129 -165 44 -195 -102 -36 -223 20 -284
130 -29 53 -30 57 -29 189 1 124 4 145 37 260 20 68 35 125 33 127 -5 5 -104
-138 -230 -329 -147 -225 -251 -363 -318 -423 -51 -45 -54 -47 -104 -43 -169
14 -198 182 -93 545 102 355 294 680 436 739 72 31 160 -3 189 -72 38 -92 0
-174 -81 -174 -30 0 -58 -42 -130 -195 -84 -179 -186 -457 -152 -415 6 9 79
106 161 215 285 382 481 606 566 648 42 21 102 17 139 -10z m-4786 -4 c42 -11
43 -23 5 -52 l-27 -20 -70 34 c-39 19 -71 37 -71 42 0 11 120 8 163 -4z
m10447 -10 c86 -18 141 -79 155 -171 37 -245 -326 -613 -612 -620 -59 -2 -70
-15 -58 -68 10 -43 34 -53 103 -41 87 16 223 89 365 196 136 104 149 108 195
65 52 -49 20 -142 -85 -245 -94 -93 -269 -198 -412 -247 -91 -32 -207 -31
-274 1 -64 31 -133 110 -152 174 -57 191 60 512 267 733 108 115 233 191 360
219 80 17 86 17 148 4z m-4746 -39 c29 -12 74 -39 99 -61 l46 -40 32 41 c58
72 115 95 172 69 24 -11 47 -47 47 -74 0 -8 -55 -123 -123 -257 -133 -262
-192 -419 -203 -534 -6 -66 -4 -71 25 -114 37 -55 39 -93 6 -125 -19 -20 -34
-25 -76 -25 -46 0 -55 4 -89 38 -44 44 -67 111 -77 220 -3 39 -7 72 -9 72 -1
0 -49 -46 -107 -103 -175 -173 -285 -245 -387 -254 -134 -13 -225 70 -245 223
-26 192 114 502 320 710 194 196 404 275 569 214z m-5970 -24 c62 -36 97 -97
104 -181 16 -207 -124 -573 -302 -787 -186 -223 -455 -265 -546 -83 -23 45
-25 61 -25 175 1 151 23 243 95 395 45 97 130 222 156 232 7 2 43 42 79 89 89
112 144 155 235 185 50 17 155 4 204 -25z m2701 -956 c21 -22 36 -42 33 -45
-3 -4 -32 -9 -63 -12 l-58 -6 7 26 c11 45 25 77 34 77 4 0 25 -18 47 -40z
m-1297 -612 c-5 -16 -48 -24 -48 -9 0 8 17 16 43 20 5 0 7 -5 5 -11z"/>
<path d="M24326 14155 c-3 -8 -1 -15 4 -15 13 0 22 18 11 24 -5 3 -11 -1 -15
-9z"/>
<path d="M18585 12914 c-246 -28 -422 -72 -460 -115 -18 -19 -18 -21 -1 -37
13 -14 34 -17 109 -16 180 1 462 84 557 163 l25 20 -55 0 c-30 -1 -109 -7
-175 -15z"/>
<path d="M17400 14313 c-35 -39 -69 -107 -70 -135 0 -15 9 -18 59 -18 40 0 63
-5 71 -15 17 -21 28 -11 61 59 40 84 38 107 -10 129 -55 25 -75 21 -111 -20z"/>
<path d="M22733 14315 c-94 -26 -243 -116 -243 -146 0 -5 27 -9 59 -9 64 0 81
-11 59 -38 -43 -49 -39 -49 87 9 58 26 198 39 233 20 14 -7 23 -8 27 -1 3 5
29 10 57 10 l51 0 -6 30 c-10 45 -35 78 -84 107 -56 32 -161 40 -240 18z"/>
<path d="M26241 13943 c-105 -63 -241 -226 -241 -291 0 -20 4 -22 23 -17 115
35 303 191 327 272 25 83 -10 94 -109 36z"/>
<path d="M21495 13890 c-146 -21 -313 -205 -419 -461 -91 -220 -44 -232 169
-42 233 208 363 389 341 476 -7 28 -32 35 -91 27z"/>
<path d="M15550 13940 c-8 -5 -45 -40 -83 -77 -52 -53 -72 -82 -92 -133 -72
-191 -72 -307 3 -356 24 -16 26 -16 40 2 28 38 113 216 138 291 32 95 45 252
22 270 -8 7 -19 9 -28 3z"/>
<path d="M15190 13264 c-13 -39 -16 -86 -6 -103 14 -22 48 -10 96 35 28 26 50
49 50 53 0 3 -29 16 -65 27 l-64 22 -11 -34z"/>
<path d="M2375 8157 c-65 -38 -87 -72 -105 -169 -10 -48 -22 -76 -42 -98 -15
-17 -28 -38 -28 -46 0 -8 -4 -14 -9 -14 -5 0 -21 -37 -36 -82 -25 -79 -27 -96
-32 -348 -6 -283 5 -486 29 -541 9 -19 20 -45 25 -59 17 -41 60 -86 106 -111
57 -31 155 -32 212 -1 49 27 102 76 110 102 4 11 11 20 16 20 5 0 9 7 9 15 0
9 7 30 16 47 29 57 44 210 44 472 0 275 -12 410 -43 471 -16 31 -20 56 -18
117 l2 76 -35 28 c-20 16 -38 41 -41 56 -4 16 -11 28 -16 28 -5 0 -9 6 -9 13
0 31 -111 49 -155 24z m88 -92 c-5 -66 -35 -132 -74 -163 l-29 -24 0 72 c0 97
31 154 79 148 22 -3 26 -8 24 -33z"/>
<path d="M4093 7975 c-21 -19 -41 -35 -44 -35 -11 0 -50 -80 -44 -90 3 -5 1
-11 -5 -15 -5 -3 -10 -29 -10 -57 0 -58 31 -134 59 -143 27 -8 141 55 189 104
49 50 62 99 38 135 -8 14 -25 27 -36 31 -11 3 -20 15 -20 25 0 10 -6 30 -14
45 l-14 26 -20 -21 c-11 -12 -26 -22 -33 -24 -8 -1 -20 -5 -26 -9 -31 -19 -9
6 29 33 39 28 40 30 15 30 -16 0 -41 -14 -64 -35z m-19 -70 c-9 -14 -13 -25
-9 -25 5 0 0 -9 -10 -20 -22 -24 -14 -25 28 -4 27 13 29 14 17 1 -20 -20 -52
-28 -69 -18 -11 7 -8 17 18 50 36 46 50 55 25 16z"/>
<path d="M8338 7722 c-10 -2 -18 -8 -18 -13 0 -11 11 -11 30 1 18 11 11 18
-12 12z"/>
<path d="M5378 7613 c6 -2 18 -2 25 0 6 3 1 5 -13 5 -14 0 -19 -2 -12 -5z"/>
<path d="M5348 7602 c11 -7 11 -10 -2 -15 -11 -5 -16 -19 -16 -50 0 -58 19
-97 47 -97 31 0 43 28 43 99 0 58 -1 61 -24 61 -13 0 -33 3 -43 6 -13 4 -14 3
-5 -4z"/>
<path d="M4088 7592 c-29 -12 -55 -55 -67 -110 -15 -71 -15 -442 1 -496 13
-45 41 -82 69 -91 31 -10 73 23 94 73 18 42 20 70 20 288 0 220 -2 244 -20
282 -13 28 -30 45 -49 52 -16 5 -29 10 -30 9 -1 0 -9 -3 -18 -7z"/>
</g>
</svg>
